{
date = "2015-03-22 16:30:14 +0000";
designer = "our dilemmas";
familyName = "dilemmas";
fontMaster = (
{
ascender = 800;
capHeight = 700;
descender = "-200";
id = "1CBD98DB-2A5F-432D-A235-DA2633F59FB1";
xHeight = 500;
}
);
glyphs = (
{
glyphname = uniE000;
lastChange = "2015-03-22 20:57:15 +0000";
layers = (
{
layerId = "1CBD98DB-2A5F-432D-A235-DA2633F59FB1";
name = Regular;
paths = (
{
closed = 1;
nodes = (
"512 -3 OFFCURVE",
"500 0 OFFCURVE",
"489 3 CURVE SMOOTH",
"434 17 OFFCURVE",
"384 42 OFFCURVE",
"343 78 CURVE",
"328 77 OFFCURVE",
"314 77 OFFCURVE",
"301 77 CURVE SMOOTH",
"137 77 OFFCURVE",
"4 173 OFFCURVE",
"4 292 CURVE SMOOTH",
"4 411 OFFCURVE",
"137 507 OFFCURVE",
"301 507 CURVE SMOOTH",
"465 507 OFFCURVE",
"598 411 OFFCURVE",
"598 292 CURVE SMOOTH",
"598 228 OFFCURVE",
"559 169 OFFCURVE",
"493 128 CURVE",
"505 91 OFFCURVE",
"521 74 OFFCURVE",
"536 57 CURVE SMOOTH",
"539 54 OFFCURVE",
"542 51 OFFCURVE",
"545 48 CURVE SMOOTH",
"547 45 LINE SMOOTH",
"552 40 OFFCURVE",
"558 32 OFFCURVE",
"557 19 CURVE SMOOTH",
"556 18 LINE",
"553 5 OFFCURVE",
"542 -4 OFFCURVE",
"529 -4 CURVE",
"527 -4 LINE"
);
},
{
closed = 1;
nodes = (
"530 25 OFFCURVE",
"529 27 OFFCURVE",
"527 29 CURVE SMOOTH",
"525 31 LINE SMOOTH",
"523 33 OFFCURVE",
"520 37 OFFCURVE",
"518 39 CURVE SMOOTH",
"500 59 OFFCURVE",
"478 81 OFFCURVE",
"465 130 CURVE SMOOTH",
"462 140 LINE",
"471 145 LINE SMOOTH",
"535 181 OFFCURVE",
"571 234 OFFCURVE",
"571 292 CURVE SMOOTH",
"571 397 OFFCURVE",
"450 482 OFFCURVE",
"301 482 CURVE SMOOTH",
"152 482 OFFCURVE",
"30 397 OFFCURVE",
"30 292 CURVE SMOOTH",
"30 188 OFFCURVE",
"152 102 OFFCURVE",
"301 102 CURVE SMOOTH",
"315 102 OFFCURVE",
"330 103 OFFCURVE",
"345 105 CURVE SMOOTH",
"351 106 LINE",
"355 101 LINE SMOOTH",
"396 66 OFFCURVE",
"442 42 OFFCURVE",
"495 28 CURVE SMOOTH",
"506 25 OFFCURVE",
"517 23 OFFCURVE",
"529 21 CURVE",
"529 21 OFFCURVE",
"530 22 OFFCURVE",
"531 23 CURVE",
"531 24 LINE"
);
},
{
closed = 1;
nodes = (
"250 349 OFFCURVE",
"252 344 OFFCURVE",
"258 339 CURVE",
"258 341 OFFCURVE",
"258 342 OFFCURVE",
"258 344 CURVE SMOOTH",
"258 347 OFFCURVE",
"260 350 OFFCURVE",
"262 352 CURVE SMOOTH",
"265 354 OFFCURVE",
"268 356 OFFCURVE",
"272 356 CURVE SMOOTH",
"282 356 OFFCURVE",
"287 350 OFFCURVE",
"287 339 CURVE SMOOTH",
"287 333 OFFCURVE",
"285 327 OFFCURVE",
"280 321 CURVE SMOOTH",
"274 317 OFFCURVE",
"267 315 OFFCURVE",
"259 315 CURVE SMOOTH",
"248 315 OFFCURVE",
"239 318 OFFCURVE",
"233 326 CURVE SMOOTH",
"226 333 OFFCURVE",
"222 342 OFFCURVE",
"222 353 CURVE SMOOTH",
"222 373 OFFCURVE",
"231 390 OFFCURVE",
"248 402 CURVE SMOOTH",
"265 416 OFFCURVE",
"287 422 OFFCURVE",
"315 422 CURVE SMOOTH",
"341 422 OFFCURVE",
"362 416 OFFCURVE",
"378 403 CURVE SMOOTH",
"395 391 OFFCURVE",
"403 374 OFFCURVE",
"403 354 CURVE SMOOTH",
"403 328 OFFCURVE",
"390 309 OFFCURVE",
"365 296 CURVE SMOOTH",
"361 294 OFFCURVE",
"355 292 OFFCURVE",
"349 288 CURVE SMOOTH",
"334 282 OFFCURVE",
"325 276 OFFCURVE",
"319 271 CURVE SMOOTH",
"314 266 OFFCURVE",
"311 258 OFFCURVE",
"311 249 CURVE SMOOTH",
"311 242 OFFCURVE",
"311 238 OFFCURVE",
"309 235 CURVE SMOOTH",
"308 232 OFFCURVE",
"303 230 OFFCURVE",
"298 230 CURVE SMOOTH",
"288 230 OFFCURVE",
"283 236 OFFCURVE",
"283 249 CURVE SMOOTH",
"283 260 OFFCURVE",
"286 270 OFFCURVE",
"291 278 CURVE SMOOTH",
"299 288 OFFCURVE",
"312 298 OFFCURVE",
"332 309 CURVE SMOOTH",
"349 318 OFFCURVE",
"360 326 OFFCURVE",
"365 332 CURVE SMOOTH",
"370 338 OFFCURVE",
"373 345 OFFCURVE",
"373 356 CURVE SMOOTH",
"373 368 OFFCURVE",
"367 379 OFFCURVE",
"356 387 CURVE SMOOTH",
"345 395 OFFCURVE",
"331 399 OFFCURVE",
"313 399 CURVE SMOOTH",
"295 399 OFFCURVE",
"280 395 OFFCURVE",
"268 386 CURVE SMOOTH",
"256 378 OFFCURVE",
"250 367 OFFCURVE",
"250 356 CURVE SMOOTH"
);
},
{
closed = 1;
nodes = (
"295 168 OFFCURVE",
"290 170 OFFCURVE",
"286 174 CURVE SMOOTH",
"280 179 OFFCURVE",
"279 184 OFFCURVE",
"279 190 CURVE SMOOTH",
"279 197 OFFCURVE",
"280 202 OFFCURVE",
"286 206 CURVE SMOOTH",
"290 211 OFFCURVE",
"295 213 OFFCURVE",
"302 213 CURVE SMOOTH",
"308 213 OFFCURVE",
"313 211 OFFCURVE",
"317 206 CURVE SMOOTH",
"321 202 OFFCURVE",
"324 197 OFFCURVE",
"324 190 CURVE SMOOTH",
"324 184 OFFCURVE",
"321 179 OFFCURVE",
"317 174 CURVE SMOOTH",
"313 170 OFFCURVE",
"308 168 OFFCURVE",
"302 168 CURVE SMOOTH"
);
}
);
width = 600;
}
);
unicode = E000;
},
{
glyphname = uniE001;
lastChange = "2015-03-22 20:56:48 +0000";
layers = (
{
layerId = "1CBD98DB-2A5F-432D-A235-DA2633F59FB1";
name = Regular;
paths = (
{
closed = 1;
nodes = (
"60 -3 OFFCURVE",
"49 7 OFFCURVE",
"47 19 CURVE",
"46 21 LINE SMOOTH",
"45 33 OFFCURVE",
"51 41 OFFCURVE",
"56 47 CURVE SMOOTH",
"58 49 LINE SMOOTH",
"61 52 OFFCURVE",
"64 55 OFFCURVE",
"66 58 CURVE SMOOTH",
"82 75 OFFCURVE",
"98 92 OFFCURVE",
"110 128 CURVE",
"44 168 OFFCURVE",
"6 227 OFFCURVE",
"6 291 CURVE SMOOTH",
"6 408 OFFCURVE",
"138 504 OFFCURVE",
"299 504 CURVE SMOOTH",
"461 504 OFFCURVE",
"593 408 OFFCURVE",
"593 291 CURVE SMOOTH",
"593 173 OFFCURVE",
"461 78 OFFCURVE",
"299 78 CURVE SMOOTH",
"286 78 OFFCURVE",
"272 78 OFFCURVE",
"258 80 CURVE",
"216 44 OFFCURVE",
"168 19 OFFCURVE",
"113 5 CURVE SMOOTH",
"102 2 OFFCURVE",
"90 -1 OFFCURVE",
"76 -3 CURVE",
"73 -3 LINE"
);
},
{
closed = 1;
nodes = (
"72 23 OFFCURVE",
"73 23 OFFCURVE",
"73 23 CURVE",
"86 24 OFFCURVE",
"97 27 OFFCURVE",
"106 29 CURVE SMOOTH",
"159 43 OFFCURVE",
"206 67 OFFCURVE",
"246 102 CURVE SMOOTH",
"250 106 LINE",
"255 105 LINE SMOOTH",
"270 104 OFFCURVE",
"285 103 OFFCURVE",
"299 103 CURVE SMOOTH",
"447 103 OFFCURVE",
"567 187 OFFCURVE",
"567 291 CURVE SMOOTH",
"567 394 OFFCURVE",
"447 478 OFFCURVE",
"299 478 CURVE SMOOTH",
"152 478 OFFCURVE",
"31 394 OFFCURVE",
"31 291 CURVE SMOOTH",
"31 234 OFFCURVE",
"68 181 OFFCURVE",
"131 145 CURVE SMOOTH",
"140 140 LINE",
"137 130 LINE SMOOTH",
"123 82 OFFCURVE",
"103 60 OFFCURVE",
"85 41 CURVE SMOOTH",
"82 38 OFFCURVE",
"80 35 OFFCURVE",
"77 32 CURVE SMOOTH",
"75 30 LINE SMOOTH",
"74 28 OFFCURVE",
"72 26 OFFCURVE",
"72 25 CURVE",
"72 24 LINE"
);
},
{
closed = 1;
nodes = (
"249 334 OFFCURVE",
"252 329 OFFCURVE",
"258 325 CURVE",
"258 326 OFFCURVE",
"258 327 OFFCURVE",
"258 329 CURVE SMOOTH",
"258 332 OFFCURVE",
"259 335 OFFCURVE",
"261 337 CURVE SMOOTH",
"264 339 OFFCURVE",
"267 340 OFFCURVE",
"271 340 CURVE SMOOTH",
"281 340 OFFCURVE",
"286 335 OFFCURVE",
"286 325 CURVE SMOOTH",
"286 318 OFFCURVE",
"284 312 OFFCURVE",
"278 307 CURVE SMOOTH",
"273 303 OFFCURVE",
"266 300 OFFCURVE",
"258 300 CURVE SMOOTH",
"247 300 OFFCURVE",
"239 304 OFFCURVE",
"232 311 CURVE SMOOTH",
"225 318 OFFCURVE",
"222 327 OFFCURVE",
"222 338 CURVE SMOOTH",
"222 358 OFFCURVE",
"230 374 OFFCURVE",
"247 387 CURVE SMOOTH",
"264 400 OFFCURVE",
"286 407 OFFCURVE",
"313 407 CURVE SMOOTH",
"339 407 OFFCURVE",
"361 401 OFFCURVE",
"377 388 CURVE SMOOTH",
"393 376 OFFCURVE",
"401 359 OFFCURVE",
"401 339 CURVE SMOOTH",
"401 314 OFFCURVE",
"388 295 OFFCURVE",
"363 282 CURVE SMOOTH",
"359 280 OFFCURVE",
"353 277 OFFCURVE",
"346 274 CURVE SMOOTH",
"332 268 OFFCURVE",
"323 263 OFFCURVE",
"318 257 CURVE SMOOTH",
"313 252 OFFCURVE",
"310 244 OFFCURVE",
"310 235 CURVE SMOOTH",
"310 229 OFFCURVE",
"309 224 OFFCURVE",
"308 222 CURVE SMOOTH",
"306 218 OFFCURVE",
"302 216 OFFCURVE",
"297 216 CURVE SMOOTH",
"287 216 OFFCURVE",
"282 223 OFFCURVE",
"282 235 CURVE SMOOTH",
"282 246 OFFCURVE",
"285 256 OFFCURVE",
"290 264 CURVE SMOOTH",
"298 274 OFFCURVE",
"311 284 OFFCURVE",
"330 295 CURVE SMOOTH",
"347 304 OFFCURVE",
"358 311 OFFCURVE",
"363 317 CURVE SMOOTH",
"368 323 OFFCURVE",
"370 331 OFFCURVE",
"370 340 CURVE SMOOTH",
"370 353 OFFCURVE",
"365 364 OFFCURVE",
"354 372 CURVE SMOOTH",
"344 380 OFFCURVE",
"329 384 OFFCURVE",
"312 384 CURVE SMOOTH",
"294 384 OFFCURVE",
"279 380 OFFCURVE",
"267 371 CURVE SMOOTH",
"255 363 OFFCURVE",
"249 352 OFFCURVE",
"249 340 CURVE SMOOTH"
);
},
{
closed = 1;
nodes = (
"294 155 OFFCURVE",
"289 157 OFFCURVE",
"284 161 CURVE SMOOTH",
"280 166 OFFCURVE",
"278 171 OFFCURVE",
"278 177 CURVE SMOOTH",
"278 183 OFFCURVE",
"280 189 OFFCURVE",
"284 193 CURVE SMOOTH",
"289 197 OFFCURVE",
"294 200 OFFCURVE",
"300 200 CURVE SMOOTH",
"306 200 OFFCURVE",
"311 197 OFFCURVE",
"316 193 CURVE SMOOTH",
"320 189 OFFCURVE",
"322 183 OFFCURVE",
"322 177 CURVE SMOOTH",
"322 171 OFFCURVE",
"320 166 OFFCURVE",
"316 161 CURVE SMOOTH",
"311 157 OFFCURVE",
"306 155 OFFCURVE",
"300 155 CURVE SMOOTH"
);
}
);
width = 600;
}
);
unicode = E001;
},
{
glyphname = uniE002;
lastChange = "2015-03-22 20:58:28 +0000";
layers = (
{
layerId = "1CBD98DB-2A5F-432D-A235-DA2633F59FB1";
name = Regular;
paths = (
{
closed = 1;
nodes = (
"59 -1 OFFCURVE",
"48 9 OFFCURVE",
"46 21 CURVE",
"45 23 LINE SMOOTH",
"44 35 OFFCURVE",
"50 43 OFFCURVE",
"55 49 CURVE SMOOTH",
"57 51 LINE SMOOTH",
"60 54 OFFCURVE",
"63 57 OFFCURVE",
"65 60 CURVE SMOOTH",
"81 77 OFFCURVE",
"97 94 OFFCURVE",
"109 130 CURVE",
"43 170 OFFCURVE",
"5 229 OFFCURVE",
"5 293 CURVE SMOOTH",
"5 410 OFFCURVE",
"137 506 OFFCURVE",
"298 506 CURVE SMOOTH",
"460 506 OFFCURVE",
"592 410 OFFCURVE",
"592 293 CURVE SMOOTH",
"592 175 OFFCURVE",
"460 80 OFFCURVE",
"298 80 CURVE SMOOTH",
"285 80 OFFCURVE",
"271 80 OFFCURVE",
"257 82 CURVE",
"215 46 OFFCURVE",
"167 21 OFFCURVE",
"112 7 CURVE SMOOTH",
"101 4 OFFCURVE",
"89 1 OFFCURVE",
"75 -1 CURVE",
"72 -1 LINE"
);
},
{
closed = 1;
nodes = (
"71 25 OFFCURVE",
"72 25 OFFCURVE",
"72 25 CURVE",
"85 26 OFFCURVE",
"96 29 OFFCURVE",
"105 31 CURVE SMOOTH",
"158 45 OFFCURVE",
"205 69 OFFCURVE",
"245 104 CURVE SMOOTH",
"249 108 LINE",
"254 107 LINE SMOOTH",
"269 106 OFFCURVE",
"284 105 OFFCURVE",
"298 105 CURVE SMOOTH",
"446 105 OFFCURVE",
"566 189 OFFCURVE",
"566 293 CURVE SMOOTH",
"566 396 OFFCURVE",
"446 480 OFFCURVE",
"298 480 CURVE SMOOTH",
"151 480 OFFCURVE",
"30 396 OFFCURVE",
"30 293 CURVE SMOOTH",
"30 236 OFFCURVE",
"67 183 OFFCURVE",
"130 147 CURVE SMOOTH",
"139 142 LINE",
"136 132 LINE SMOOTH",
"122 84 OFFCURVE",
"102 62 OFFCURVE",
"84 43 CURVE SMOOTH",
"81 40 OFFCURVE",
"79 37 OFFCURVE",
"76 34 CURVE SMOOTH",
"74 32 LINE SMOOTH",
"73 30 OFFCURVE",
"71 28 OFFCURVE",
"71 27 CURVE",
"71 26 LINE"
);
}
);
width = 600;
}
);
unicode = E002;
},
{
glyphname = uniE003;
lastChange = "2015-03-28 16:34:18 +0000";
layers = (
{
layerId = "1CBD98DB-2A5F-432D-A235-DA2633F59FB1";
name = Regular;
paths = (
{
closed = 1;
nodes = (
"506 1 OFFCURVE",
"494 4 OFFCURVE",
"483 6 CURVE SMOOTH",
"429 20 OFFCURVE",
"381 45 OFFCURVE",
"339 81 CURVE",
"325 80 OFFCURVE",
"312 79 OFFCURVE",
"298 79 CURVE SMOOTH",
"138 79 OFFCURVE",
"7 174 OFFCURVE",
"7 291 CURVE SMOOTH",
"7 407 OFFCURVE",
"138 502 OFFCURVE",
"298 502 CURVE SMOOTH",
"459 502 OFFCURVE",
"590 407 OFFCURVE",
"590 291 CURVE SMOOTH",
"590 228 OFFCURVE",
"552 169 OFFCURVE",
"487 129 CURVE",
"499 93 OFFCURVE",
"515 76 OFFCURVE",
"530 59 CURVE SMOOTH",
"533 56 OFFCURVE",
"535 53 OFFCURVE",
"538 50 CURVE SMOOTH",
"540 48 LINE SMOOTH",
"545 43 OFFCURVE",
"551 35 OFFCURVE",
"550 23 CURVE SMOOTH",
"549 21 LINE",
"547 8 OFFCURVE",
"536 -1 OFFCURVE",
"523 -1 CURVE",
"520 -1 LINE"
);
},
{
closed = 1;
nodes = (
"524 28 OFFCURVE",
"522 30 OFFCURVE",
"521 32 CURVE SMOOTH",
"519 34 LINE SMOOTH",
"517 37 OFFCURVE",
"514 39 OFFCURVE",
"511 42 CURVE SMOOTH",
"493 62 OFFCURVE",
"473 83 OFFCURVE",
"460 131 CURVE SMOOTH",
"457 141 LINE",
"466 146 LINE SMOOTH",
"528 181 OFFCURVE",
"564 234 OFFCURVE",
"564 291 CURVE SMOOTH",
"564 393 OFFCURVE",
"445 477 OFFCURVE",
"298 477 CURVE SMOOTH",
"152 477 OFFCURVE",
"32 393 OFFCURVE",
"32 291 CURVE SMOOTH",
"32 188 OFFCURVE",
"152 104 OFFCURVE",
"298 104 CURVE SMOOTH",
"312 104 OFFCURVE",
"327 105 OFFCURVE",
"342 107 CURVE SMOOTH",
"348 107 LINE",
"352 104 LINE SMOOTH",
"391 69 OFFCURVE",
"438 44 OFFCURVE",
"490 31 CURVE SMOOTH",
"499 28 OFFCURVE",
"511 26 OFFCURVE",
"523 25 CURVE",
"523 25 OFFCURVE",
"524 25 OFFCURVE",
"524 26 CURVE",
"525 27 LINE"
);
},
{
closed = 1;
nodes = (
"374 319 OFFCURVE",
"397 341 OFFCURVE",
"425 341 CURVE SMOOTH",
"452 341 OFFCURVE",
"475 319 OFFCURVE",
"475 291 CURVE SMOOTH",
"475 263 OFFCURVE",
"452 241 OFFCURVE",
"425 241 CURVE SMOOTH",
"397 241 OFFCURVE",
"374 263 OFFCURVE",
"374 291 CURVE SMOOTH"
);
},
{
closed = 1;
nodes = (
"395 274 OFFCURVE",
"408 260 OFFCURVE",
"425 260 CURVE SMOOTH",
"442 260 OFFCURVE",
"456 274 OFFCURVE",
"456 291 CURVE SMOOTH",
"456 307 OFFCURVE",
"442 322 OFFCURVE",
"425 322 CURVE SMOOTH",
"408 322 OFFCURVE",
"395 307 OFFCURVE",
"395 291 CURVE SMOOTH"
);
},
{
closed = 1;
nodes = (
"243 319 OFFCURVE",
"265 341 OFFCURVE",
"293 341 CURVE SMOOTH",
"321 341 OFFCURVE",
"343 319 OFFCURVE",
"343 291 CURVE SMOOTH",
"343 263 OFFCURVE",
"321 241 OFFCURVE",
"293 241 CURVE SMOOTH",
"265 241 OFFCURVE",
"243 263 OFFCURVE",
"243 291 CURVE SMOOTH"
);
},
{
closed = 1;
nodes = (
"263 274 OFFCURVE",
"276 260 OFFCURVE",
"293 260 CURVE SMOOTH",
"310 260 OFFCURVE",
"325 274 OFFCURVE",
"325 291 CURVE SMOOTH",
"325 307 OFFCURVE",
"310 322 OFFCURVE",
"293 322 CURVE SMOOTH",
"276 322 OFFCURVE",
"263 307 OFFCURVE",
"263 291 CURVE SMOOTH"
);
},
{
closed = 1;
nodes = (
"115 319 OFFCURVE",
"138 341 OFFCURVE",
"165 341 CURVE SMOOTH",
"193 341 OFFCURVE",
"215 319 OFFCURVE",
"215 291 CURVE SMOOTH",
"215 263 OFFCURVE",
"193 242 OFFCURVE",
"165 242 CURVE SMOOTH",
"138 242 OFFCURVE",
"115 263 OFFCURVE",
"115 291 CURVE SMOOTH"
);
},
{
closed = 1;
nodes = (
"135 275 OFFCURVE",
"149 261 OFFCURVE",
"165 261 CURVE SMOOTH",
"182 261 OFFCURVE",
"196 275 OFFCURVE",
"196 291 CURVE SMOOTH",
"196 308 OFFCURVE",
"182 323 OFFCURVE",
"165 323 CURVE SMOOTH",
"149 323 OFFCURVE",
"135 308 OFFCURVE",
"135 291 CURVE SMOOTH"
);
}
);
width = 600;
}
);
unicode = E003;
},
{
glyphname = uniE004;
lastChange = "2015-03-28 16:29:14 +0000";
layers = (
{
layerId = "1CBD98DB-2A5F-432D-A235-DA2633F59FB1";
name = Regular;
paths = (
{
closed = 1;
nodes = (
"48 223 LINE SMOOTH",
"273 223 LINE SMOOTH",
"192 144 LINE SMOOTH",
"224 116 OFFCURVE",
"263 102 OFFCURVE",
"304 102 CURVE",
"375 102 OFFCURVE",
"440 146 OFFCURVE",
"464 213 CURVE",
"469 224 LINE SMOOTH",
"549 194 LINE SMOOTH",
"544 183 LINE",
"506 83 OFFCURVE",
"410 17 OFFCURVE",
"304 17 CURVE",
"240 17 OFFCURVE",
"179 40 OFFCURVE",
"133 83 CURVE SMOOTH",
"48 0 LINE SMOOTH"
);
},
{
closed = 1;
nodes = (
"138 109 LINE",
"183 64 OFFCURVE",
"241 40 OFFCURVE",
"304 40 CURVE",
"397 40 OFFCURVE",
"482 96 OFFCURVE",
"520 181 CURVE SMOOTH",
"484 195 LINE SMOOTH",
"453 123 OFFCURVE",
"382 78 OFFCURVE",
"304 78 CURVE",
"253 78 OFFCURVE",
"202 98 OFFCURVE",
"166 135 CURVE",
"156 144 LINE SMOOTH",
"214 201 LINE SMOOTH",
"69 201 LINE SMOOTH",
"69 57 LINE SMOOTH",
"130 117 LINE SMOOTH"
);
},
{
closed = 1;
nodes = (
"549 284 LINE SMOOTH",
"324 284 LINE SMOOTH",
"404 363 LINE SMOOTH",
"373 391 OFFCURVE",
"334 405 OFFCURVE",
"292 405 CURVE",
"222 405 OFFCURVE",
"157 361 OFFCURVE",
"133 294 CURVE",
"128 283 LINE SMOOTH",
"48 313 LINE SMOOTH",
"53 324 LINE",
"90 424 OFFCURVE",
"186 490 OFFCURVE",
"292 490 CURVE",
"357 490 OFFCURVE",
"417 467 OFFCURVE",
"464 424 CURVE SMOOTH",
"549 507 LINE SMOOTH"
);
},
{
closed = 1;
nodes = (
"459 398 LINE",
"415 443 OFFCURVE",
"355 467 OFFCURVE",
"292 467 CURVE",
"199 467 OFFCURVE",
"113 411 OFFCURVE",
"77 326 CURVE SMOOTH",
"111 312 LINE SMOOTH",
"144 384 OFFCURVE",
"215 430 OFFCURVE",
"292 430 CURVE",
"345 430 OFFCURVE",
"395 409 OFFCURVE",
"432 372 CURVE",
"441 363 LINE SMOOTH",
"383 306 LINE SMOOTH",
"527 306 LINE SMOOTH",
"527 450 LINE SMOOTH",
"466 390 LINE SMOOTH"
);
}
);
width = 600;
}
);
unicode = E004;
},
{
glyphname = uniE005;
lastChange = "2015-03-24 19:28:00 +0000";
layers = (
{
layerId = "1CBD98DB-2A5F-432D-A235-DA2633F59FB1";
name = Regular;
paths = (
{
closed = 1;
nodes = (
"585 254 OFFCURVE",
"592 268 OFFCURVE",
"593 287 CURVE SMOOTH",
"594 341 OFFCURVE",
"542 359 OFFCURVE",
"514 361 CURVE",
"427 361 LINE",
"426 361 LINE",
"422 369 OFFCURVE",
"428 377 OFFCURVE",
"427 377 CURVE",
"427 377 LINE",
"429 379 OFFCURVE",
"456 413 OFFCURVE",
"475 468 CURVE SMOOTH",
"495 529 OFFCURVE",
"443 572 OFFCURVE",
"440 574 CURVE",
"437 576 LINE",
"435 577 OFFCURVE",
"417 584 OFFCURVE",
"399 574 CURVE SMOOTH",
"386 566 OFFCURVE",
"378 551 OFFCURVE",
"375 529 CURVE SMOOTH",
"369 477 OFFCURVE",
"326 434 OFFCURVE",
"306 418 CURVE SMOOTH",
"303 416 OFFCURVE",
"301 414 OFFCURVE",
"300 413 CURVE SMOOTH",
"285 400 OFFCURVE",
"270 367 OFFCURVE",
"259 345 CURVE SMOOTH",
"252 330 OFFCURVE",
"232 305 OFFCURVE",
"221 296 CURVE",
"214 296 OFFCURVE",
"200 296 OFFCURVE",
"191 296 CURVE",
"187 307 OFFCURVE",
"177 320 OFFCURVE",
"165 320 CURVE SMOOTH",
"31 320 LINE SMOOTH",
"16 320 OFFCURVE",
"4 308 OFFCURVE",
"4 293 CURVE SMOOTH",
"4 35 LINE SMOOTH",
"4 19 OFFCURVE",
"16 7 OFFCURVE",
"31 7 CURVE SMOOTH",
"165 7 LINE SMOOTH",
"178 7 OFFCURVE",
"189 17 OFFCURVE",
"192 29 CURVE",
"197 30 OFFCURVE",
"201 34 OFFCURVE",
"203 34 CURVE",
"207 30 OFFCURVE",
"215 15 OFFCURVE",
"234 8 CURVE SMOOTH",
"236 7 LINE",
"238 7 LINE SMOOTH",
"240 7 OFFCURVE",
"328 7 OFFCURVE",
"408 7 CURVE SMOOTH",
"448 7 OFFCURVE",
"483 7 OFFCURVE",
"497 7 CURVE SMOOTH",
"523 7 OFFCURVE",
"536 18 OFFCURVE",
"543 28 CURVE SMOOTH",
"556 46 OFFCURVE",
"556 67 OFFCURVE",
"554 79 CURVE",
"571 95 OFFCURVE",
"573 123 OFFCURVE",
"573 134 CURVE SMOOTH",
"573 145 OFFCURVE",
"571 152 OFFCURVE",
"567 160 CURVE",
"577 168 OFFCURVE",
"586 185 OFFCURVE",
"588 206 CURVE SMOOTH",
"589 225 OFFCURVE",
"584 238 OFFCURVE",
"579 246 CURVE"
);
},
{
closed = 1;
nodes = (
"167 33 OFFCURVE",
"166 32 OFFCURVE",
"165 32 CURVE SMOOTH",
"31 32 LINE SMOOTH",
"30 32 OFFCURVE",
"29 33 OFFCURVE",
"29 35 CURVE SMOOTH",
"29 293 LINE SMOOTH",
"29 294 OFFCURVE",
"30 295 OFFCURVE",
"31 295 CURVE SMOOTH",
"165 295 LINE SMOOTH",
"166 295 OFFCURVE",
"167 294 OFFCURVE",
"167 293 CURVE SMOOTH",
"167 35 LINE SMOOTH"
);
},
{
closed = 1;
nodes = (
"543 248 LINE",
"554 238 LINE SMOOTH",
"554 237 OFFCURVE",
"564 228 OFFCURVE",
"563 208 CURVE SMOOTH",
"561 185 OFFCURVE",
"545 175 OFFCURVE",
"545 175 CURVE",
"527 167 LINE",
"542 154 LINE",
"543 153 OFFCURVE",
"549 145 OFFCURVE",
"548 133 CURVE SMOOTH",
"547 123 OFFCURVE",
"543 102 OFFCURVE",
"532 94 CURVE",
"518 88 LINE",
"528 80 LINE",
"530 72 OFFCURVE",
"531 54 OFFCURVE",
"522 42 CURVE SMOOTH",
"517 35 OFFCURVE",
"509 32 OFFCURVE",
"497 32 CURVE SMOOTH",
"457 31 OFFCURVE",
"266 32 OFFCURVE",
"241 32 CURVE",
"233 35 OFFCURVE",
"225 39 OFFCURVE",
"223 41 CURVE",
"220 45 OFFCURVE",
"214 60 OFFCURVE",
"192 59 CURVE",
"192 271 LINE",
"205 271 OFFCURVE",
"226 271 OFFCURVE",
"226 271 CURVE",
"231 271 LINE",
"234 274 LINE SMOOTH",
"235 275 OFFCURVE",
"270 308 OFFCURVE",
"282 334 CURVE SMOOTH",
"294 358 OFFCURVE",
"306 385 OFFCURVE",
"316 394 CURVE SMOOTH",
"317 395 OFFCURVE",
"319 397 OFFCURVE",
"322 399 CURVE SMOOTH",
"342 415 OFFCURVE",
"393 464 OFFCURVE",
"400 526 CURVE SMOOTH",
"402 539 OFFCURVE",
"406 548 OFFCURVE",
"412 552 CURVE SMOOTH",
"417 555 OFFCURVE",
"423 554 OFFCURVE",
"426 553 CURVE",
"434 546 OFFCURVE",
"464 516 OFFCURVE",
"451 476 CURVE SMOOTH",
"434 425 OFFCURVE",
"408 394 OFFCURVE",
"408 393 CURVE",
"401 384 OFFCURVE",
"394 364 OFFCURVE",
"406 346 CURVE SMOOTH",
"411 338 OFFCURVE",
"421 335 OFFCURVE",
"428 336 CURVE",
"513 336 LINE",
"515 336 OFFCURVE",
"569 331 OFFCURVE",
"568 287 CURVE SMOOTH",
"567 267 OFFCURVE",
"555 258 OFFCURVE",
"555 257 CURVE"
);
}
);
width = 600;
}
);
unicode = E005;
},
{
glyphname = uniE006;
lastChange = "2015-03-28 16:30:57 +0000";
layers = (
{
layerId = "1CBD98DB-2A5F-432D-A235-DA2633F59FB1";
name = Regular;
paths = (
{
closed = 1;
nodes = (
"291 0 OFFCURVE",
"283 3 OFFCURVE",
"278 9 CURVE SMOOTH",
"84 196 LINE",
"84 196 OFFCURVE",
"10 261 OFFCURVE",
"10 344 CURVE SMOOTH",
"10 441 OFFCURVE",
"71 501 OFFCURVE",
"170 501 CURVE SMOOTH",
"223 501 OFFCURVE",
"271 465 OFFCURVE",
"300 439 CURVE",
"329 465 OFFCURVE",
"377 501 OFFCURVE",
"430 501 CURVE SMOOTH",
"529 501 OFFCURVE",
"590 441 OFFCURVE",
"590 344 CURVE SMOOTH",
"590 272 OFFCURVE",
"534 212 OFFCURVE",
"516 196 CURVE SMOOTH",
"322 9 LINE SMOOTH",
"317 3 OFFCURVE",
"309 0 OFFCURVE",
"300 0 CURVE SMOOTH"
);
},
{
closed = 1;
nodes = (
"86 474 OFFCURVE",
"38 426 OFFCURVE",
"38 343 CURVE SMOOTH",
"38 274 OFFCURVE",
"102 215 OFFCURVE",
"103 214 CURVE",
"295 29 LINE SMOOTH",
"297 27 OFFCURVE",
"299 27 OFFCURVE",
"300 27 CURVE SMOOTH",
"301 27 OFFCURVE",
"303 27 OFFCURVE",
"305 29 CURVE SMOOTH",
"496 213 LINE SMOOTH",
"512 229 OFFCURVE",
"563 282 OFFCURVE",
"563 343 CURVE SMOOTH",
"563 426 OFFCURVE",
"514 474 OFFCURVE",
"429 474 CURVE SMOOTH",
"379 474 OFFCURVE",
"333 435 OFFCURVE",
"309 411 CURVE SMOOTH",
"300 403 LINE",
"291 411 LINE SMOOTH",
"267 435 OFFCURVE",
"221 474 OFFCURVE",
"171 474 CURVE SMOOTH"
);
}
);
width = 600;
}
);
unicode = E006;
},
{
glyphname = uniE007;
lastChange = "2015-03-24 19:31:26 +0000";
layers = (
{
layerId = "1CBD98DB-2A5F-432D-A235-DA2633F59FB1";
name = Regular;
paths = (
{
closed = 1;
nodes = (
"10 441 OFFCURVE",
"72 501 OFFCURVE",
"171 501 CURVE SMOOTH",
"223 501 OFFCURVE",
"272 465 OFFCURVE",
"300 439 CURVE",
"329 465 OFFCURVE",
"378 501 OFFCURVE",
"430 501 CURVE SMOOTH",
"529 501 OFFCURVE",
"591 441 OFFCURVE",
"591 344 CURVE SMOOTH",
"591 272 OFFCURVE",
"534 212 OFFCURVE",
"517 196 CURVE SMOOTH",
"323 9 LINE SMOOTH",
"317 3 OFFCURVE",
"309 0 OFFCURVE",
"300 0 CURVE SMOOTH",
"292 0 OFFCURVE",
"284 3 OFFCURVE",
"278 9 CURVE SMOOTH",
"85 196 LINE",
"84 196 OFFCURVE",
"10 261 OFFCURVE",
"10 344 CURVE SMOOTH"
);
}
);
width = 600;
}
);
unicode = E007;
},
{
glyphname = uniE008;
lastChange = "2015-03-28 15:55:28 +0000";
layers = (
{
layerId = "1CBD98DB-2A5F-432D-A235-DA2633F59FB1";
name = Regular;
paths = (
{
closed = 1;
nodes = (
"31 100 LINE",
"38 104 LINE SMOOTH",
"68 118 OFFCURVE",
"87 143 OFFCURVE",
"87 167 CURVE SMOOTH",
"87 168 OFFCURVE",
"87 170 OFFCURVE",
"87 172 CURVE",
"32 210 OFFCURVE",
"0 266 OFFCURVE",
"0 326 CURVE SMOOTH",
"0 437 OFFCURVE",
"110 527 OFFCURVE",
"246 527 CURVE SMOOTH",
"381 527 OFFCURVE",
"491 437 OFFCURVE",
"491 326 CURVE SMOOTH",
"491 215 OFFCURVE",
"381 125 OFFCURVE",
"246 125 CURVE SMOOTH",
"235 125 OFFCURVE",
"225 125 OFFCURVE",
"214 126 CURVE",
"161 76 OFFCURVE",
"101 68 OFFCURVE",
"44 67 CURVE SMOOTH",
"31 67 LINE"
);
},
{
closed = 1;
nodes = (
"125 501 OFFCURVE",
"26 423 OFFCURVE",
"26 326 CURVE SMOOTH",
"26 273 OFFCURVE",
"55 224 OFFCURVE",
"106 190 CURVE SMOOTH",
"111 187 LINE",
"112 181 LINE SMOOTH",
"113 177 OFFCURVE",
"113 172 OFFCURVE",
"113 167 CURVE SMOOTH",
"113 140 OFFCURVE",
"89 113 OFFCURVE",
"63 94 CURVE",
"108 98 OFFCURVE",
"161 110 OFFCURVE",
"200 149 CURVE SMOOTH",
"205 153 LINE",
"211 153 LINE SMOOTH",
"223 151 OFFCURVE",
"234 150 OFFCURVE",
"246 150 CURVE SMOOTH",
"367 150 OFFCURVE",
"466 229 OFFCURVE",
"466 326 CURVE SMOOTH",
"466 423 OFFCURVE",
"367 501 OFFCURVE",
"246 501 CURVE SMOOTH"
);
},
{
closed = 1;
nodes = (
"561 2 LINE SMOOTH",
"507 4 OFFCURVE",
"463 13 OFFCURVE",
"420 53 CURVE",
"364 47 OFFCURVE",
"309 59 OFFCURVE",
"265 86 CURVE SMOOTH",
"245 98 LINE",
"268 98 LINE SMOOTH",
"337 98 OFFCURVE",
"401 120 OFFCURVE",
"451 160 CURVE SMOOTH",
"475 180 OFFCURVE",
"495 203 OFFCURVE",
"508 230 CURVE SMOOTH",
"523 257 OFFCURVE",
"530 287 OFFCURVE",
"530 317 CURVE SMOOTH",
"530 322 OFFCURVE",
"530 327 OFFCURVE",
"529 331 CURVE SMOOTH",
"528 347 LINE",
"540 337 LINE SMOOTH",
"578 305 OFFCURVE",
"599 264 OFFCURVE",
"599 220 CURVE SMOOTH",
"599 169 OFFCURVE",
"570 121 OFFCURVE",
"523 89 CURVE",
"523 85 OFFCURVE",
"523 83 OFFCURVE",
"523 81 CURVE SMOOTH",
"523 57 OFFCURVE",
"539 37 OFFCURVE",
"564 25 CURVE SMOOTH",
"568 23 LINE",
"568 2 LINE"
);
},
{
closed = 1;
nodes = (
"434 73 LINE SMOOTH",
"466 41 OFFCURVE",
"494 24 OFFCURVE",
"535 22 CURVE",
"512 34 OFFCURVE",
"506 65 OFFCURVE",
"504 88 CURVE SMOOTH",
"503 93 OFFCURVE",
"503 92 OFFCURVE",
"503 98 CURVE SMOOTH",
"503 102 LINE",
"513 109 LINE SMOOTH",
"552 134 OFFCURVE",
"570 169 OFFCURVE",
"576 208 CURVE SMOOTH",
"581 238 OFFCURVE",
"571 280 OFFCURVE",
"548 303 CURVE",
"548 276 OFFCURVE",
"540 240 OFFCURVE",
"517 205 CURVE SMOOTH",
"503 183 OFFCURVE",
"487 162 OFFCURVE",
"466 145 CURVE SMOOTH",
"427 113 OFFCURVE",
"369 90 OFFCURVE",
"318 86 CURVE",
"349 70 OFFCURVE",
"392 70 OFFCURVE",
"429 74 CURVE SMOOTH",
"432 74 LINE"
);
}
);
width = 600;
}
);
unicode = E008;
},
{
glyphname = uniE009;
lastChange = "2015-03-28 16:35:34 +0000";
layers = (
{
layerId = "1CBD98DB-2A5F-432D-A235-DA2633F59FB1";
name = Regular;
paths = (
{
closed = 1;
nodes = (
"31 100 LINE",
"38 104 LINE SMOOTH",
"68 118 OFFCURVE",
"87 143 OFFCURVE",
"87 167 CURVE SMOOTH",
"87 168 OFFCURVE",
"87 170 OFFCURVE",
"87 172 CURVE",
"32 210 OFFCURVE",
"0 266 OFFCURVE",
"0 326 CURVE SMOOTH",
"0 437 OFFCURVE",
"110 527 OFFCURVE",
"246 527 CURVE SMOOTH",
"381 527 OFFCURVE",
"491 437 OFFCURVE",
"491 326 CURVE SMOOTH",
"491 215 OFFCURVE",
"381 125 OFFCURVE",
"246 125 CURVE SMOOTH",
"235 125 OFFCURVE",
"225 125 OFFCURVE",
"214 126 CURVE",
"161 76 OFFCURVE",
"101 68 OFFCURVE",
"44 67 CURVE SMOOTH",
"31 67 LINE"
);
},
{
closed = 1;
nodes = (
"125 501 OFFCURVE",
"26 423 OFFCURVE",
"26 326 CURVE SMOOTH",
"26 273 OFFCURVE",
"55 224 OFFCURVE",
"106 190 CURVE SMOOTH",
"111 187 LINE",
"112 181 LINE SMOOTH",
"113 177 OFFCURVE",
"113 172 OFFCURVE",
"113 167 CURVE SMOOTH",
"113 140 OFFCURVE",
"89 113 OFFCURVE",
"63 94 CURVE",
"108 98 OFFCURVE",
"161 110 OFFCURVE",
"200 149 CURVE SMOOTH",
"205 153 LINE",
"211 153 LINE SMOOTH",
"223 151 OFFCURVE",
"234 150 OFFCURVE",
"246 150 CURVE SMOOTH",
"367 150 OFFCURVE",
"466 229 OFFCURVE",
"466 326 CURVE SMOOTH",
"466 423 OFFCURVE",
"367 501 OFFCURVE",
"246 501 CURVE SMOOTH"
);
},
{
closed = 1;
nodes = (
"561 2 LINE SMOOTH",
"507 4 OFFCURVE",
"463 13 OFFCURVE",
"420 53 CURVE",
"364 47 OFFCURVE",
"309 59 OFFCURVE",
"265 86 CURVE SMOOTH",
"245 98 LINE",
"268 98 LINE SMOOTH",
"337 98 OFFCURVE",
"401 120 OFFCURVE",
"451 160 CURVE SMOOTH",
"475 180 OFFCURVE",
"495 203 OFFCURVE",
"508 230 CURVE SMOOTH",
"523 257 OFFCURVE",
"530 287 OFFCURVE",
"530 317 CURVE SMOOTH",
"530 322 OFFCURVE",
"530 327 OFFCURVE",
"529 331 CURVE SMOOTH",
"528 347 LINE",
"540 337 LINE SMOOTH",
"578 305 OFFCURVE",
"599 264 OFFCURVE",
"599 220 CURVE SMOOTH",
"599 169 OFFCURVE",
"570 121 OFFCURVE",
"523 89 CURVE",
"523 85 OFFCURVE",
"523 83 OFFCURVE",
"523 81 CURVE SMOOTH",
"523 57 OFFCURVE",
"539 37 OFFCURVE",
"564 25 CURVE SMOOTH",
"568 23 LINE",
"568 2 LINE"
);
},
{
closed = 1;
nodes = (
"434 74 LINE SMOOTH",
"466 42 OFFCURVE",
"493 26 OFFCURVE",
"534 24 CURVE",
"511 35 OFFCURVE",
"505 66 OFFCURVE",
"503 89 CURVE SMOOTH",
"502 94 OFFCURVE",
"502 93 OFFCURVE",
"502 99 CURVE SMOOTH",
"502 103 LINE",
"512 110 LINE SMOOTH",
"551 134 OFFCURVE",
"569 169 OFFCURVE",
"575 207 CURVE SMOOTH",
"580 237 OFFCURVE",
"570 279 OFFCURVE",
"547 301 CURVE",
"547 275 OFFCURVE",
"539 239 OFFCURVE",
"516 205 CURVE SMOOTH",
"502 183 OFFCURVE",
"487 162 OFFCURVE",
"466 145 CURVE SMOOTH",
"427 114 OFFCURVE",
"370 91 OFFCURVE",
"320 87 CURVE",
"350 71 OFFCURVE",
"393 71 OFFCURVE",
"429 75 CURVE SMOOTH",
"432 75 LINE"
);
},
{
closed = 1;
nodes = (
"313 352 OFFCURVE",
"333 372 OFFCURVE",
"359 372 CURVE SMOOTH",
"383 372 OFFCURVE",
"403 352 OFFCURVE",
"403 328 CURVE SMOOTH",
"403 304 OFFCURVE",
"383 282 OFFCURVE",
"359 282 CURVE SMOOTH",
"333 282 OFFCURVE",
"313 304 OFFCURVE",
"313 328 CURVE SMOOTH"
);
},
{
closed = 1;
nodes = (
"334 313 OFFCURVE",
"344 303 OFFCURVE",
"359 303 CURVE",
"372 303 OFFCURVE",
"384 313 OFFCURVE",
"384 328 CURVE",
"384 341 OFFCURVE",
"372 353 OFFCURVE",
"359 353 CURVE",
"344 353 OFFCURVE",
"334 341 OFFCURVE",
"334 328 CURVE"
);
},
{
closed = 1;
nodes = (
"196 352 OFFCURVE",
"216 372 OFFCURVE",
"241 372 CURVE SMOOTH",
"266 372 OFFCURVE",
"286 352 OFFCURVE",
"286 328 CURVE SMOOTH",
"286 304 OFFCURVE",
"266 282 OFFCURVE",
"241 282 CURVE SMOOTH",
"216 282 OFFCURVE",
"196 304 OFFCURVE",
"196 328 CURVE SMOOTH"
);
},
{
closed = 1;
nodes = (
"216 314 OFFCURVE",
"228 303 OFFCURVE",
"241 303 CURVE SMOOTH",
"254 303 OFFCURVE",
"266 314 OFFCURVE",
"266 328 CURVE SMOOTH",
"266 341 OFFCURVE",
"254 353 OFFCURVE",
"241 353 CURVE SMOOTH",
"228 353 OFFCURVE",
"216 341 OFFCURVE",
"216 328 CURVE SMOOTH"
);
},
{
closed = 1;
nodes = (
"83 354 OFFCURVE",
"103 374 OFFCURVE",
"127 374 CURVE SMOOTH",
"152 374 OFFCURVE",
"172 354 OFFCURVE",
"172 328 CURVE SMOOTH",
"172 304 OFFCURVE",
"152 284 OFFCURVE",
"127 284 CURVE SMOOTH",
"103 284 OFFCURVE",
"83 304 OFFCURVE",
"83 328 CURVE SMOOTH"
);
},
{
closed = 1;
nodes = (
"103 315 OFFCURVE",
"113 304 OFFCURVE",
"127 304 CURVE SMOOTH",
"141 304 OFFCURVE",
"153 315 OFFCURVE",
"153 328 CURVE SMOOTH",
"153 343 OFFCURVE",
"141 354 OFFCURVE",
"127 354 CURVE SMOOTH",
"113 354 OFFCURVE",
"103 343 OFFCURVE",
"103 328 CURVE SMOOTH"
);
}
);
width = 600;
}
);
unicode = E009;
},
{
glyphname = uniE00A;
lastChange = "2015-03-28 15:50:03 +0000";
layers = (
{
layerId = "1CBD98DB-2A5F-432D-A235-DA2633F59FB1";
name = Regular;
paths = (
{
closed = 1;
nodes = (
"571 -9 LINE",
"298 244 LINE",
"25 -9 LINE",
"25 690 LINE",
"571 690 LINE"
);
},
{
closed = 1;
nodes = (
"54 56 LINE",
"299 290 LINE",
"544 56 LINE",
"544 660 LINE",
"54 660 LINE"
);
}
);
width = 600;
}
);
unicode = E00A;
},
{
glyphname = uniE00B;
lastChange = "2015-03-24 19:48:26 +0000";
layers = (
{
layerId = "1CBD98DB-2A5F-432D-A235-DA2633F59FB1";
name = Regular;
paths = (
{
closed = 1;
nodes = (
"25 -9 LINE",
"297 244 LINE",
"570 -9 LINE",
"570 690 LINE",
"25 690 LINE"
);
}
);
width = 600;
}
);
unicode = E00B;
},
{
glyphname = uniE00C;
lastChange = "2015-03-28 15:48:54 +0000";
layers = (
{
layerId = "1CBD98DB-2A5F-432D-A235-DA2633F59FB1";
name = Regular;
paths = (
{
closed = 1;
nodes = (
"431 136 OFFCURVE",
"388 144 OFFCURVE",
"357 159 CURVE SMOOTH",
"328 173 OFFCURVE",
"288 180 OFFCURVE",
"247 180 CURVE SMOOTH",
"203 180 OFFCURVE",
"164 164 OFFCURVE",
"138 152 CURVE SMOOTH",
"128 147 LINE",
"128 444 LINE",
"131 445 LINE SMOOTH",
"158 458 OFFCURVE",
"200 475 OFFCURVE",
"247 475 CURVE SMOOTH",
"290 475 OFFCURVE",
"333 466 OFFCURVE",
"364 452 CURVE SMOOTH",
"393 438 OFFCURVE",
"433 430 OFFCURVE",
"473 430 CURVE SMOOTH",
"515 430 OFFCURVE",
"552 445 OFFCURVE",
"583 459 CURVE SMOOTH",
"593 464 LINE",
"593 168 LINE",
"590 167 LINE SMOOTH",
"560 152 OFFCURVE",
"519 136 OFFCURVE",
"473 136 CURVE SMOOTH"
);
},
{
closed = 1;
nodes = (
"293 201 OFFCURVE",
"333 194 OFFCURVE",
"362 181 CURVE SMOOTH",
"390 169 OFFCURVE",
"427 162 OFFCURVE",
"465 162 CURVE SMOOTH",
"503 162 OFFCURVE",
"537 174 OFFCURVE",
"565 186 CURVE",
"565 430 LINE",
"538 419 OFFCURVE",
"503 407 OFFCURVE",
"465 407 CURVE SMOOTH",
"425 407 OFFCURVE",
"385 415 OFFCURVE",
"355 428 CURVE SMOOTH",
"328 440 OFFCURVE",
"290 446 OFFCURVE",
"252 446 CURVE SMOOTH",
"212 446 OFFCURVE",
"176 433 OFFCURVE",
"152 423 CURVE",
"152 179 LINE",
"178 189 OFFCURVE",
"213 201 OFFCURVE",
"252 201 CURVE SMOOTH"
);
},
{
closed = 1;
nodes = (
"8 -4 LINE",
"8 470 LINE SMOOTH",
"8 490 OFFCURVE",
"31 506 OFFCURVE",
"59 506 CURVE SMOOTH",
"87 506 OFFCURVE",
"110 490 OFFCURVE",
"110 470 CURVE SMOOTH",
"110 -4 LINE"
);
},
{
closed = 1;
nodes = (
"83 15 LINE",
"83 470 LINE SMOOTH",
"83 479 OFFCURVE",
"72 487 OFFCURVE",
"59 487 CURVE SMOOTH",
"46 487 OFFCURVE",
"35 479 OFFCURVE",
"35 470 CURVE SMOOTH",
"35 15 LINE"
);
}
);
width = 600;
}
);
unicode = E00C;
},
{
glyphname = uniE00D;
lastChange = "2015-03-28 16:10:17 +0000";
layers = (
{
layerId = "1CBD98DB-2A5F-432D-A235-DA2633F59FB1";
name = Regular;
paths = (
{
closed = 1;
nodes = (
"431 122 OFFCURVE",
"388 130 OFFCURVE",
"357 145 CURVE SMOOTH",
"328 159 OFFCURVE",
"288 166 OFFCURVE",
"247 166 CURVE SMOOTH",
"203 166 OFFCURVE",
"164 150 OFFCURVE",
"138 138 CURVE SMOOTH",
"128 133 LINE",
"128 444 LINE",
"131 445 LINE SMOOTH",
"158 458 OFFCURVE",
"200 475 OFFCURVE",
"247 475 CURVE SMOOTH",
"290 475 OFFCURVE",
"333 466 OFFCURVE",
"364 452 CURVE SMOOTH",
"393 438 OFFCURVE",
"433 430 OFFCURVE",
"473 430 CURVE SMOOTH",
"515 430 OFFCURVE",
"552 445 OFFCURVE",
"583 459 CURVE SMOOTH",
"593 464 LINE",
"593 154 LINE",
"590 153 LINE SMOOTH",
"560 138 OFFCURVE",
"519 122 OFFCURVE",
"473 122 CURVE SMOOTH"
);
},
{
closed = 1;
nodes = (
"8 -8 LINE",
"8 470 LINE SMOOTH",
"8 490 OFFCURVE",
"31 506 OFFCURVE",
"59 506 CURVE SMOOTH",
"87 506 OFFCURVE",
"110 490 OFFCURVE",
"110 470 CURVE SMOOTH",
"110 -8 LINE"
);
}
);
width = 600;
}
);
unicode = E00D;
},
{
glyphname = uniE00E;
lastChange = "2015-03-28 16:30:12 +0000";
layers = (
{
layerId = "1CBD98DB-2A5F-432D-A235-DA2633F59FB1";
name = Regular;
paths = (
{
closed = 1;
nodes = (
"403 603 OFFCURVE",
"284 571 OFFCURVE",
"231 477 CURVE SMOOTH",
"153 340 LINE",
"9 243 LINE",
"160 155 LINE",
"133 108 OFFCURVE",
"149 48 OFFCURVE",
"195 21 CURVE SMOOTH",
"241 -7 OFFCURVE",
"301 10 OFFCURVE",
"327 57 CURVE",
"478 -32 LINE",
"489 144 LINE",
"566 280 LINE SMOOTH",
"619 374 OFFCURVE",
"588 494 OFFCURVE",
"495 549 CURVE SMOOTH"
);
},
{
closed = 1;
nodes = (
"168 70 OFFCURVE",
"166 109 OFFCURVE",
"185 142 CURVE",
"301 69 LINE",
"281 35 OFFCURVE",
"245 16 OFFCURVE",
"202 45 CURVE SMOOTH"
);
},
{
closed = 1;
nodes = (
"463 154 LINE",
"454 13 LINE",
"60 245 LINE",
"176 322 LINE",
"259 468 LINE SMOOTH",
"304 549 OFFCURVE",
"406 576 OFFCURVE",
"485 530 CURVE SMOOTH",
"564 483 OFFCURVE",
"591 380 OFFCURVE",
"546 300 CURVE SMOOTH"
);
}
);
width = 600;
}
);
unicode = E00E;
},
{
glyphname = uniE00F;
lastChange = "2015-03-24 19:57:40 +0000";
layers = (
{
layerId = "1CBD98DB-2A5F-432D-A235-DA2633F59FB1";
name = Regular;
paths = (
{
closed = 1;
nodes = (
"387 389 LINE",
"297 580 LINE",
"207 389 LINE",
"8 358 LINE",
"152 210 LINE",
"118 1 LINE",
"297 100 LINE",
"477 1 LINE",
"442 210 LINE",
"587 358 LINE"
);
},
{
closed = 1;
nodes = (
"152 49 LINE",
"180 213 LINE",
"54 341 LINE",
"224 363 LINE",
"297 520 LINE",
"370 363 LINE",
"539 339 LINE",
"415 213 LINE",
"441 48 LINE",
"297 130 LINE"
);
}
);
width = 600;
}
);
unicode = E00F;
},
{
glyphname = uniE010;
lastChange = "2015-03-24 19:58:25 +0000";
layers = (
{
layerId = "1CBD98DB-2A5F-432D-A235-DA2633F59FB1";
name = Regular;
paths = (
{
closed = 1;
nodes = (
"387 389 LINE",
"298 580 LINE",
"208 389 LINE",
"8 358 LINE",
"153 210 LINE",
"118 1 LINE",
"298 100 LINE",
"477 1 LINE",
"443 210 LINE",
"587 358 LINE"
);
}
);
width = 600;
}
);
unicode = E010;
},
{
glyphname = uniE011;
lastChange = "2015-03-24 19:59:29 +0000";
layers = (
{
layerId = "1CBD98DB-2A5F-432D-A235-DA2633F59FB1";
name = Regular;
paths = (
{
closed = 1;
nodes = (
"8 -2 LINE",
"8 13 LINE SMOOTH",
"8 103 OFFCURVE",
"179 177 OFFCURVE",
"225 186 CURVE",
"227 189 OFFCURVE",
"228 198 OFFCURVE",
"229 206 CURVE",
"218 218 OFFCURVE",
"192 250 OFFCURVE",
"183 292 CURVE",
"173 297 OFFCURVE",
"165 307 OFFCURVE",
"159 321 CURVE SMOOTH",
"152 341 OFFCURVE",
"151 368 OFFCURVE",
"166 386 CURVE",
"166 386 OFFCURVE",
"166 386 OFFCURVE",
"166 387 CURVE SMOOTH",
"163 412 OFFCURVE",
"156 478 OFFCURVE",
"195 521 CURVE SMOOTH",
"218 547 OFFCURVE",
"253 560 OFFCURVE",
"299 560 CURVE SMOOTH",
"344 560 OFFCURVE",
"379 547 OFFCURVE",
"402 521 CURVE SMOOTH",
"441 478 OFFCURVE",
"434 412 OFFCURVE",
"431 387 CURVE SMOOTH",
"431 386 OFFCURVE",
"431 386 OFFCURVE",
"431 386 CURVE",
"446 368 OFFCURVE",
"445 341 OFFCURVE",
"438 321 CURVE SMOOTH",
"433 307 OFFCURVE",
"424 297 OFFCURVE",
"414 292 CURVE",
"405 250 OFFCURVE",
"379 218 OFFCURVE",
"368 206 CURVE",
"369 198 OFFCURVE",
"370 189 OFFCURVE",
"372 186 CURVE",
"418 177 OFFCURVE",
"589 103 OFFCURVE",
"589 13 CURVE SMOOTH",
"589 -2 LINE"
);
},
{
closed = 1;
nodes = (
"557 28 LINE",
"549 53 OFFCURVE",
"522 80 OFFCURVE",
"479 107 CURVE SMOOTH",
"434 135 OFFCURVE",
"384 154 OFFCURVE",
"364 157 CURVE SMOOTH",
"341 161 OFFCURVE",
"338 196 OFFCURVE",
"338 211 CURVE SMOOTH",
"338 217 LINE",
"342 222 LINE SMOOTH",
"343 222 OFFCURVE",
"379 259 OFFCURVE",
"387 306 CURVE SMOOTH",
"389 319 LINE",
"401 319 LINE",
"403 319 OFFCURVE",
"408 325 OFFCURVE",
"411 336 CURVE SMOOTH",
"415 350 OFFCURVE",
"413 364 OFFCURVE",
"406 369 CURVE SMOOTH",
"401 374 LINE",
"401 381 LINE SMOOTH",
"401 383 OFFCURVE",
"401 386 OFFCURVE",
"402 390 CURVE SMOOTH",
"404 413 OFFCURVE",
"410 468 OFFCURVE",
"380 501 CURVE SMOOTH",
"363 520 OFFCURVE",
"335 530 OFFCURVE",
"299 530 CURVE SMOOTH",
"262 530 OFFCURVE",
"234 520 OFFCURVE",
"217 501 CURVE SMOOTH",
"187 468 OFFCURVE",
"193 413 OFFCURVE",
"195 390 CURVE SMOOTH",
"196 386 OFFCURVE",
"196 383 OFFCURVE",
"196 381 CURVE SMOOTH",
"196 374 LINE",
"191 369 LINE SMOOTH",
"184 364 OFFCURVE",
"182 350 OFFCURVE",
"186 336 CURVE SMOOTH",
"189 325 OFFCURVE",
"194 319 OFFCURVE",
"196 319 CURVE",
"208 319 LINE",
"210 306 LINE SMOOTH",
"218 259 OFFCURVE",
"254 222 OFFCURVE",
"255 222 CURVE SMOOTH",
"259 217 LINE",
"259 211 LINE SMOOTH",
"259 196 OFFCURVE",
"256 161 OFFCURVE",
"233 157 CURVE SMOOTH",
"213 154 OFFCURVE",
"163 135 OFFCURVE",
"118 107 CURVE SMOOTH",
"75 80 OFFCURVE",
"48 53 OFFCURVE",
"40 28 CURVE"
);
}
);
width = 600;
}
);
unicode = E011;
},
{
glyphname = uniE012;
lastChange = "2015-03-28 16:32:17 +0000";
layers = (
{
layerId = "1CBD98DB-2A5F-432D-A235-DA2633F59FB1";
name = Regular;
paths = (
{
closed = 1;
nodes = (
"135 2 OFFCURVE",
"1 137 OFFCURVE",
"1 302 CURVE SMOOTH",
"1 468 OFFCURVE",
"135 603 OFFCURVE",
"300 603 CURVE SMOOTH",
"466 603 OFFCURVE",
"601 468 OFFCURVE",
"601 302 CURVE SMOOTH",
"601 137 OFFCURVE",
"466 2 OFFCURVE",
"300 2 CURVE SMOOTH"
);
},
{
closed = 1;
nodes = (
"149 577 OFFCURVE",
"25 453 OFFCURVE",
"25 302 CURVE SMOOTH",
"25 152 OFFCURVE",
"149 28 OFFCURVE",
"300 28 CURVE SMOOTH",
"451 28 OFFCURVE",
"575 152 OFFCURVE",
"575 302 CURVE SMOOTH",
"575 453 OFFCURVE",
"451 577 OFFCURVE",
"300 577 CURVE SMOOTH"
);
},
{
closed = 1;
nodes = (
"227 2 OFFCURVE",
"157 29 OFFCURVE",
"102 78 CURVE SMOOTH",
"94 84 LINE",
"101 91 LINE SMOOTH",
"121 114 OFFCURVE",
"154 133 OFFCURVE",
"197 145 CURVE",
"212 151 OFFCURVE",
"220 155 OFFCURVE",
"225 161 CURVE SMOOTH",
"230 166 OFFCURVE",
"234 172 OFFCURVE",
"235 178 CURVE SMOOTH",
"235 182 OFFCURVE",
"235 204 OFFCURVE",
"235 224 CURVE",
"225 235 OFFCURVE",
"215 253 OFFCURVE",
"206 279 CURVE",
"198 284 OFFCURVE",
"189 296 OFFCURVE",
"186 308 CURVE SMOOTH",
"184 322 OFFCURVE",
"185 333 OFFCURVE",
"190 341 CURVE",
"179 406 OFFCURVE",
"186 455 OFFCURVE",
"212 486 CURVE SMOOTH",
"232 510 OFFCURVE",
"262 522 OFFCURVE",
"303 522 CURVE SMOOTH",
"306 522 LINE SMOOTH",
"340 522 OFFCURVE",
"348 515 OFFCURVE",
"355 505 CURVE SMOOTH",
"356 503 OFFCURVE",
"357 501 OFFCURVE",
"359 500 CURVE",
"378 500 OFFCURVE",
"393 493 OFFCURVE",
"404 478 CURVE SMOOTH",
"424 452 OFFCURVE",
"426 401 OFFCURVE",
"411 342 CURVE",
"416 334 OFFCURVE",
"418 322 OFFCURVE",
"415 307 CURVE SMOOTH",
"412 294 OFFCURVE",
"402 282 OFFCURVE",
"392 278 CURVE",
"385 254 OFFCURVE",
"377 236 OFFCURVE",
"366 223 CURVE",
"366 180 LINE",
"368 170 OFFCURVE",
"371 167 OFFCURVE",
"377 161 CURVE SMOOTH",
"382 157 LINE",
"386 153 OFFCURVE",
"390 152 OFFCURVE",
"405 144 CURVE",
"447 133 OFFCURVE",
"481 114 OFFCURVE",
"499 91 CURVE SMOOTH",
"506 84 LINE",
"498 78 LINE SMOOTH",
"444 29 OFFCURVE",
"373 2 OFFCURVE",
"300 2 CURVE SMOOTH"
);
},
{
closed = 1;
nodes = (
"180 49 OFFCURVE",
"238 29 OFFCURVE",
"300 29 CURVE SMOOTH",
"362 29 OFFCURVE",
"421 49 OFFCURVE",
"468 88 CURVE",
"452 104 OFFCURVE",
"427 117 OFFCURVE",
"394 126 CURVE",
"377 133 OFFCURVE",
"371 135 OFFCURVE",
"365 141 CURVE",
"361 146 LINE SMOOTH",
"352 153 OFFCURVE",
"346 160 OFFCURVE",
"344 177 CURVE",
"344 226 LINE",
"346 229 LINE SMOOTH",
"356 241 OFFCURVE",
"364 259 OFFCURVE",
"370 284 CURVE SMOOTH",
"374 297 LINE",
"383 291 LINE",
"386 293 OFFCURVE",
"388 298 OFFCURVE",
"389 304 CURVE SMOOTH",
"391 321 OFFCURVE",
"391 326 OFFCURVE",
"390 328 CURVE",
"384 331 LINE",
"385 340 LINE",
"399 394 OFFCURVE",
"399 439 OFFCURVE",
"384 461 CURVE SMOOTH",
"376 469 OFFCURVE",
"368 473 OFFCURVE",
"356 473 CURVE",
"350 473 LINE",
"349 474 LINE SMOOTH",
"342 478 OFFCURVE",
"339 483 OFFCURVE",
"337 486 CURVE SMOOTH",
"333 491 OFFCURVE",
"330 501 OFFCURVE",
"306 501 CURVE SMOOTH",
"303 501 LINE SMOOTH",
"270 501 OFFCURVE",
"247 485 OFFCURVE",
"231 467 CURVE SMOOTH",
"211 441 OFFCURVE",
"205 398 OFFCURVE",
"215 339 CURVE SMOOTH",
"217 329 LINE",
"211 328 LINE",
"211 326 OFFCURVE",
"211 321 OFFCURVE",
"211 304 CURVE SMOOTH",
"211 296 OFFCURVE",
"218 290 OFFCURVE",
"219 289 CURVE",
"228 290 LINE",
"228 284 LINE",
"236 256 OFFCURVE",
"246 241 OFFCURVE",
"254 230 CURVE SMOOTH",
"257 227 LINE",
"257 224 LINE SMOOTH",
"258 213 OFFCURVE",
"259 181 OFFCURVE",
"257 173 CURVE SMOOTH",
"255 163 OFFCURVE",
"251 154 OFFCURVE",
"242 146 CURVE SMOOTH",
"233 137 OFFCURVE",
"224 132 OFFCURVE",
"208 127 CURVE",
"175 117 OFFCURVE",
"149 104 OFFCURVE",
"132 88 CURVE"
);
}
);
width = 600;
}
);
unicode = E012;
},
{
glyphname = uniE013;
lastChange = "2015-03-28 15:45:18 +0000";
layers = (
{
layerId = "1CBD98DB-2A5F-432D-A235-DA2633F59FB1";
name = Regular;
paths = (
{
closed = 1;
nodes = (
"379 1 OFFCURVE",
"365 7 OFFCURVE",
"355 18 CURVE SMOOTH",
"142 230 LINE SMOOTH",
"120 252 OFFCURVE",
"120 288 OFFCURVE",
"141 310 CURVE SMOOTH",
"355 523 LINE SMOOTH",
"365 533 OFFCURVE",
"379 539 OFFCURVE",
"394 539 CURVE SMOOTH",
"410 539 OFFCURVE",
"424 533 OFFCURVE",
"434 523 CURVE SMOOTH",
"458 498 LINE SMOOTH",
"480 476 OFFCURVE",
"480 441 OFFCURVE",
"458 420 CURVE SMOOTH",
"309 270 LINE",
"458 120 LINE SMOOTH",
"480 98 OFFCURVE",
"480 63 OFFCURVE",
"458 42 CURVE SMOOTH",
"434 17 LINE SMOOTH",
"424 7 OFFCURVE",
"410 1 OFFCURVE",
"394 1 CURVE SMOOTH"
);
},
{
closed = 1;
nodes = (
"387 511 OFFCURVE",
"380 508 OFFCURVE",
"375 504 CURVE SMOOTH",
"161 289 LINE SMOOTH",
"150 279 OFFCURVE",
"150 261 OFFCURVE",
"161 251 CURVE SMOOTH",
"375 36 LINE SMOOTH",
"385 26 OFFCURVE",
"403 26 OFFCURVE",
"414 36 CURVE SMOOTH",
"438 61 LINE SMOOTH",
"449 72 OFFCURVE",
"449 90 OFFCURVE",
"438 101 CURVE SMOOTH",
"270 270 LINE",
"438 439 LINE SMOOTH",
"449 450 OFFCURVE",
"449 468 OFFCURVE",
"438 479 CURVE SMOOTH",
"414 504 LINE SMOOTH",
"409 508 OFFCURVE",
"402 511 OFFCURVE",
"394 511 CURVE SMOOTH"
);
}
);
width = 600;
}
);
unicode = E013;
},
{
glyphname = uniE014;
lastChange = "2015-03-28 15:45:51 +0000";
layers = (
{
layerId = "1CBD98DB-2A5F-432D-A235-DA2633F59FB1";
name = Regular;
paths = (
{
closed = 1;
nodes = (
"188 1 OFFCURVE",
"173 8 OFFCURVE",
"162 19 CURVE SMOOTH",
"137 44 LINE SMOOTH",
"126 55 OFFCURVE",
"120 69 OFFCURVE",
"120 84 CURVE SMOOTH",
"120 100 OFFCURVE",
"126 115 OFFCURVE",
"137 125 CURVE SMOOTH",
"291 279 LINE",
"137 432 LINE SMOOTH",
"126 443 OFFCURVE",
"120 458 OFFCURVE",
"120 474 CURVE SMOOTH",
"120 489 OFFCURVE",
"126 503 OFFCURVE",
"137 514 CURVE SMOOTH",
"162 538 LINE SMOOTH",
"173 549 OFFCURVE",
"188 556 OFFCURVE",
"203 556 CURVE SMOOTH",
"219 556 OFFCURVE",
"233 549 OFFCURVE",
"244 538 CURVE SMOOTH",
"464 320 LINE SMOOTH",
"474 309 OFFCURVE",
"480 295 OFFCURVE",
"480 279 CURVE SMOOTH",
"480 263 OFFCURVE",
"474 249 OFFCURVE",
"464 238 CURVE SMOOTH",
"243 19 LINE SMOOTH",
"233 8 OFFCURVE",
"219 1 OFFCURVE",
"203 1 CURVE SMOOTH"
);
},
{
closed = 1;
nodes = (
"196 527 OFFCURVE",
"188 525 OFFCURVE",
"183 519 CURVE SMOOTH",
"157 494 LINE SMOOTH",
"152 489 OFFCURVE",
"149 481 OFFCURVE",
"149 474 CURVE SMOOTH",
"149 465 OFFCURVE",
"152 458 OFFCURVE",
"157 453 CURVE SMOOTH",
"331 279 LINE",
"157 104 LINE SMOOTH",
"152 100 OFFCURVE",
"149 92 OFFCURVE",
"149 84 CURVE SMOOTH",
"149 77 OFFCURVE",
"152 69 OFFCURVE",
"157 63 CURVE SMOOTH",
"183 39 LINE SMOOTH",
"193 29 OFFCURVE",
"212 29 OFFCURVE",
"223 39 CURVE SMOOTH",
"443 259 LINE SMOOTH",
"449 263 OFFCURVE",
"451 272 OFFCURVE",
"451 279 CURVE SMOOTH",
"451 286 OFFCURVE",
"449 295 OFFCURVE",
"443 299 CURVE SMOOTH",
"223 519 LINE SMOOTH",
"218 525 OFFCURVE",
"210 527 OFFCURVE",
"203 527 CURVE SMOOTH"
);
}
);
width = 600;
}
);
unicode = E014;
},
{
glyphname = uniE015;
lastChange = "2015-03-28 15:45:37 +0000";
layers = (
{
layerId = "1CBD98DB-2A5F-432D-A235-DA2633F59FB1";
name = Regular;
paths = (
{
closed = 1;
nodes = (
"272 2 LINE SMOOTH",
"261 2 OFFCURVE",
"251 7 OFFCURVE",
"243 14 CURVE SMOOTH",
"236 22 OFFCURVE",
"231 32 OFFCURVE",
"231 43 CURVE SMOOTH",
"231 154 LINE",
"120 154 LINE SMOOTH",
"109 154 OFFCURVE",
"99 158 OFFCURVE",
"92 165 CURVE SMOOTH",
"84 174 OFFCURVE",
"80 183 OFFCURVE",
"80 195 CURVE SMOOTH",
"80 251 LINE SMOOTH",
"80 262 OFFCURVE",
"84 271 OFFCURVE",
"92 280 CURVE SMOOTH",
"99 287 OFFCURVE",
"109 291 OFFCURVE",
"120 291 CURVE SMOOTH",
"231 291 LINE",
"231 402 LINE SMOOTH",
"231 413 OFFCURVE",
"236 424 OFFCURVE",
"243 431 CURVE SMOOTH",
"251 438 OFFCURVE",
"261 443 OFFCURVE",
"272 443 CURVE SMOOTH",
"328 443 LINE SMOOTH",
"340 443 OFFCURVE",
"349 438 OFFCURVE",
"357 431 CURVE SMOOTH",
"365 424 OFFCURVE",
"369 413 OFFCURVE",
"369 402 CURVE SMOOTH",
"369 291 LINE",
"480 291 LINE SMOOTH",
"491 291 OFFCURVE",
"501 287 OFFCURVE",
"509 280 CURVE SMOOTH",
"516 271 OFFCURVE",
"520 262 OFFCURVE",
"520 251 CURVE SMOOTH",
"520 195 LINE SMOOTH",
"520 183 OFFCURVE",
"516 174 OFFCURVE",
"509 165 CURVE SMOOTH",
"501 158 OFFCURVE",
"491 154 OFFCURVE",
"480 154 CURVE SMOOTH",
"369 154 LINE",
"369 43 LINE SMOOTH",
"369 32 OFFCURVE",
"365 22 OFFCURVE",
"357 14 CURVE SMOOTH",
"349 7 OFFCURVE",
"340 2 OFFCURVE",
"328 2 CURVE SMOOTH"
);
},
{
closed = 1;
nodes = (
"116 268 OFFCURVE",
"112 265 OFFCURVE",
"108 263 CURVE SMOOTH",
"106 260 OFFCURVE",
"105 256 OFFCURVE",
"105 251 CURVE SMOOTH",
"105 195 LINE SMOOTH",
"105 190 OFFCURVE",
"106 185 OFFCURVE",
"108 182 CURVE SMOOTH",
"112 180 OFFCURVE",
"116 177 OFFCURVE",
"120 177 CURVE SMOOTH",
"255 177 LINE",
"255 43 LINE SMOOTH",
"255 38 OFFCURVE",
"258 35 OFFCURVE",
"260 31 CURVE SMOOTH",
"264 28 OFFCURVE",
"267 27 OFFCURVE",
"272 27 CURVE SMOOTH",
"328 27 LINE SMOOTH",
"333 27 OFFCURVE",
"338 28 OFFCURVE",
"340 31 CURVE SMOOTH",
"344 35 OFFCURVE",
"346 38 OFFCURVE",
"346 43 CURVE SMOOTH",
"346 177 LINE",
"480 177 LINE SMOOTH",
"485 177 OFFCURVE",
"488 180 OFFCURVE",
"492 182 CURVE SMOOTH",
"494 185 OFFCURVE",
"497 190 OFFCURVE",
"497 195 CURVE SMOOTH",
"497 251 LINE SMOOTH",
"497 256 OFFCURVE",
"494 260 OFFCURVE",
"492 263 CURVE SMOOTH",
"488 265 OFFCURVE",
"485 268 OFFCURVE",
"480 268 CURVE SMOOTH",
"346 268 LINE",
"346 402 LINE SMOOTH",
"346 407 OFFCURVE",
"344 410 OFFCURVE",
"340 414 CURVE SMOOTH",
"338 417 OFFCURVE",
"333 418 OFFCURVE",
"328 418 CURVE SMOOTH",
"272 418 LINE SMOOTH",
"267 418 OFFCURVE",
"264 417 OFFCURVE",
"260 414 CURVE SMOOTH",
"258 410 OFFCURVE",
"255 407 OFFCURVE",
"255 402 CURVE SMOOTH",
"255 268 LINE",
"120 268 LINE SMOOTH"
);
}
);
width = 600;
}
);
unicode = E015;
},
{
glyphname = uniE016;
lastChange = "2015-03-28 15:46:28 +0000";
layers = (
{
layerId = "1CBD98DB-2A5F-432D-A235-DA2633F59FB1";
name = Regular;
paths = (
{
closed = 1;
nodes = (
"231 0 OFFCURVE",
"220 4 OFFCURVE",
"213 13 CURVE SMOOTH",
"53 171 LINE SMOOTH",
"45 179 OFFCURVE",
"41 191 OFFCURVE",
"41 202 CURVE SMOOTH",
"41 214 OFFCURVE",
"45 225 OFFCURVE",
"53 232 CURVE SMOOTH",
"97 276 LINE SMOOTH",
"113 293 OFFCURVE",
"143 293 OFFCURVE",
"158 276 CURVE SMOOTH",
"243 191 LINE",
"443 392 LINE SMOOTH",
"459 407 OFFCURVE",
"488 407 OFFCURVE",
"504 392 CURVE SMOOTH",
"548 348 LINE SMOOTH",
"556 341 OFFCURVE",
"560 329 OFFCURVE",
"560 318 CURVE SMOOTH",
"560 306 OFFCURVE",
"556 295 OFFCURVE",
"548 287 CURVE SMOOTH",
"274 13 LINE SMOOTH",
"266 4 OFFCURVE",
"254 0 OFFCURVE",
"243 0 CURVE SMOOTH"
);
},
{
closed = 1;
nodes = (
"123 263 OFFCURVE",
"119 261 OFFCURVE",
"115 258 CURVE SMOOTH",
"72 215 LINE SMOOTH",
"68 212 OFFCURVE",
"66 206 OFFCURVE",
"66 202 CURVE SMOOTH",
"66 197 OFFCURVE",
"68 193 OFFCURVE",
"72 190 CURVE SMOOTH",
"230 30 LINE SMOOTH",
"237 25 OFFCURVE",
"249 25 OFFCURVE",
"255 30 CURVE SMOOTH",
"529 305 LINE SMOOTH",
"533 308 OFFCURVE",
"535 313 OFFCURVE",
"535 318 CURVE SMOOTH",
"535 322 OFFCURVE",
"533 326 OFFCURVE",
"529 330 CURVE SMOOTH",
"486 373 LINE SMOOTH",
"479 380 OFFCURVE",
"467 380 OFFCURVE",
"461 373 CURVE SMOOTH",
"243 155 LINE",
"140 258 LINE SMOOTH",
"137 261 OFFCURVE",
"132 263 OFFCURVE",
"127 263 CURVE SMOOTH"
);
}
);
width = 600;
}
);
unicode = E016;
},
{
glyphname = uniE017;
lastChange = "2015-03-28 15:47:36 +0000";
layers = (
{
layerId = "1CBD98DB-2A5F-432D-A235-DA2633F59FB1";
name = Regular;
paths = (
{
closed = 1;
nodes = (
"419 0 OFFCURVE",
"407 5 OFFCURVE",
"398 14 CURVE SMOOTH",
"306 106 LINE",
"214 14 LINE SMOOTH",
"197 -4 OFFCURVE",
"164 -4 OFFCURVE",
"146 14 CURVE SMOOTH",
"100 60 LINE SMOOTH",
"91 70 OFFCURVE",
"86 82 OFFCURVE",
"86 94 CURVE SMOOTH",
"86 107 OFFCURVE",
"91 119 OFFCURVE",
"100 127 CURVE SMOOTH",
"192 220 LINE",
"100 312 LINE SMOOTH",
"91 321 OFFCURVE",
"86 333 OFFCURVE",
"86 345 CURVE SMOOTH",
"86 358 OFFCURVE",
"91 370 OFFCURVE",
"100 380 CURVE SMOOTH",
"146 426 LINE SMOOTH",
"164 444 OFFCURVE",
"197 444 OFFCURVE",
"214 426 CURVE SMOOTH",
"306 334 LINE",
"398 426 LINE SMOOTH",
"415 444 OFFCURVE",
"448 444 OFFCURVE",
"466 426 CURVE SMOOTH",
"512 380 LINE SMOOTH",
"521 370 OFFCURVE",
"526 358 OFFCURVE",
"526 345 CURVE SMOOTH",
"526 333 OFFCURVE",
"521 321 OFFCURVE",
"512 312 CURVE SMOOTH",
"420 220 LINE",
"512 127 LINE SMOOTH",
"521 119 OFFCURVE",
"526 107 OFFCURVE",
"526 94 CURVE SMOOTH",
"526 82 OFFCURVE",
"521 70 OFFCURVE",
"512 60 CURVE SMOOTH",
"466 14 LINE SMOOTH",
"456 5 OFFCURVE",
"444 0 OFFCURVE",
"432 0 CURVE SMOOTH"
);
},
{
closed = 1;
nodes = (
"418 33 LINE SMOOTH",
"425 26 OFFCURVE",
"438 26 OFFCURVE",
"445 33 CURVE SMOOTH",
"493 81 LINE SMOOTH",
"496 84 OFFCURVE",
"497 89 OFFCURVE",
"497 94 CURVE SMOOTH",
"497 99 OFFCURVE",
"496 104 OFFCURVE",
"493 108 CURVE SMOOTH",
"381 220 LINE",
"493 332 LINE SMOOTH",
"496 336 OFFCURVE",
"497 341 OFFCURVE",
"497 345 CURVE SMOOTH",
"497 351 OFFCURVE",
"496 356 OFFCURVE",
"493 359 CURVE SMOOTH",
"445 407 LINE SMOOTH",
"438 414 OFFCURVE",
"425 414 OFFCURVE",
"418 407 CURVE SMOOTH",
"306 295 LINE",
"194 407 LINE SMOOTH",
"187 414 OFFCURVE",
"174 414 OFFCURVE",
"167 407 CURVE SMOOTH",
"119 359 LINE SMOOTH",
"116 356 OFFCURVE",
"114 351 OFFCURVE",
"114 345 CURVE SMOOTH",
"114 341 OFFCURVE",
"116 336 OFFCURVE",
"119 332 CURVE SMOOTH",
"231 220 LINE",
"119 108 LINE SMOOTH",
"116 104 OFFCURVE",
"114 99 OFFCURVE",
"114 94 CURVE SMOOTH",
"114 89 OFFCURVE",
"116 84 OFFCURVE",
"119 81 CURVE SMOOTH",
"167 33 LINE SMOOTH",
"174 26 OFFCURVE",
"187 26 OFFCURVE",
"194 33 CURVE SMOOTH",
"306 145 LINE"
);
}
);
width = 600;
}
);
unicode = E017;
},
{
glyphname = uniE018;
lastChange = "2015-03-28 15:57:21 +0000";
layers = (
{
layerId = "1CBD98DB-2A5F-432D-A235-DA2633F59FB1";
name = Regular;
paths = (
{
closed = 1;
nodes = (
"199 -7 LINE SMOOTH",
"159 -7 OFFCURVE",
"126 26 OFFCURVE",
"126 67 CURVE",
"80 538 LINE",
"525 538 LINE",
"479 66 LINE",
"479 26 OFFCURVE",
"446 -7 OFFCURVE",
"405 -7 CURVE SMOOTH"
);
},
{
closed = 1;
nodes = (
"155 68 LINE",
"155 43 OFFCURVE",
"175 23 OFFCURVE",
"199 23 CURVE SMOOTH",
"405 23 LINE SMOOTH",
"430 23 OFFCURVE",
"450 43 OFFCURVE",
"450 67 CURVE",
"492 509 LINE",
"112 509 LINE"
);
},
{
closed = 1;
nodes = (
"162 516 LINE",
"162 568 LINE SMOOTH",
"162 604 OFFCURVE",
"192 634 OFFCURVE",
"229 634 CURVE SMOOTH",
"376 634 LINE SMOOTH",
"413 634 OFFCURVE",
"442 604 OFFCURVE",
"442 568 CURVE SMOOTH",
"442 516 LINE"
);
},
{
closed = 1;
nodes = (
"415 534 LINE",
"415 567 LINE SMOOTH",
"415 592 OFFCURVE",
"393 612 OFFCURVE",
"368 612 CURVE SMOOTH",
"237 612 LINE SMOOTH",
"211 612 OFFCURVE",
"190 592 OFFCURVE",
"190 567 CURVE SMOOTH",
"190 534 LINE"
);
},
{
closed = 1;
nodes = (
"567 538 LINE SMOOTH",
"576 538 OFFCURVE",
"582 532 OFFCURVE",
"582 524 CURVE SMOOTH",
"582 515 OFFCURVE",
"576 509 OFFCURVE",
"567 509 CURVE SMOOTH",
"37 509 LINE SMOOTH",
"29 509 OFFCURVE",
"23 515 OFFCURVE",
"23 524 CURVE SMOOTH",
"23 532 OFFCURVE",
"29 538 OFFCURVE",
"37 538 CURVE SMOOTH"
);
},
{
closed = 1;
nodes = (
"222 435 OFFCURVE",
"229 429 OFFCURVE",
"229 420 CURVE",
"243 111 LINE",
"243 103 OFFCURVE",
"237 96 OFFCURVE",
"229 96 CURVE SMOOTH",
"221 96 OFFCURVE",
"214 103 OFFCURVE",
"214 111 CURVE",
"199 420 LINE",
"199 429 OFFCURVE",
"206 435 OFFCURVE",
"214 435 CURVE SMOOTH"
);
},
{
closed = 1;
nodes = (
"310 435 OFFCURVE",
"317 429 OFFCURVE",
"317 420 CURVE SMOOTH",
"317 111 LINE SMOOTH",
"317 103 OFFCURVE",
"310 96 OFFCURVE",
"302 96 CURVE SMOOTH",
"294 96 OFFCURVE",
"288 103 OFFCURVE",
"288 111 CURVE SMOOTH",
"288 420 LINE SMOOTH",
"288 429 OFFCURVE",
"294 435 OFFCURVE",
"302 435 CURVE SMOOTH"
);
},
{
closed = 1;
nodes = (
"399 435 OFFCURVE",
"405 429 OFFCURVE",
"405 420 CURVE",
"391 111 LINE",
"391 103 OFFCURVE",
"384 96 OFFCURVE",
"376 96 CURVE SMOOTH",
"368 96 OFFCURVE",
"361 103 OFFCURVE",
"361 111 CURVE",
"376 420 LINE",
"376 429 OFFCURVE",
"383 435 OFFCURVE",
"391 435 CURVE SMOOTH"
);
}
);
width = 600;
}
);
unicode = E018;
},
{
glyphname = uniE019;
lastChange = "2015-03-28 16:09:51 +0000";
layers = (
{
layerId = "1CBD98DB-2A5F-432D-A235-DA2633F59FB1";
name = Regular;
paths = (
{
closed = 1;
nodes = (
"573 110 OFFCURVE",
"570 113 OFFCURVE",
"568 115 CURVE SMOOTH",
"555 129 OFFCURVE",
"506 175 OFFCURVE",
"472 195 CURVE SMOOTH",
"402 234 OFFCURVE",
"318 251 OFFCURVE",
"226 243 CURVE",
"226 140 LINE",
"2 318 LINE",
"226 496 LINE",
"226 397 LINE",
"368 384 OFFCURVE",
"477 316 OFFCURVE",
"550 194 CURVE SMOOTH",
"592 124 OFFCURVE",
"590 121 OFFCURVE",
"587 115 CURVE SMOOTH",
"584 110 LINE",
"578 110 LINE SMOOTH"
);
},
{
closed = 1;
nodes = (
"345 267 OFFCURVE",
"414 250 OFFCURVE",
"475 216 CURVE SMOOTH",
"493 206 OFFCURVE",
"515 189 OFFCURVE",
"533 173 CURVE",
"530 178 OFFCURVE",
"526 184 OFFCURVE",
"524 189 CURVE SMOOTH",
"455 302 OFFCURVE",
"357 363 OFFCURVE",
"223 375 CURVE SMOOTH",
"208 376 LINE",
"208 449 LINE",
"44 318 LINE",
"208 187 LINE",
"208 264 LINE",
"217 265 LINE SMOOTH",
"234 267 OFFCURVE",
"251 267 OFFCURVE",
"268 267 CURVE SMOOTH"
);
}
);
width = 600;
}
);
unicode = E019;
},
{
glyphname = uniE01A;
lastChange = "2015-03-28 16:09:34 +0000";
layers = (
{
layerId = "1CBD98DB-2A5F-432D-A235-DA2633F59FB1";
name = Regular;
paths = (
{
closed = 1;
nodes = (
"11 110 LINE",
"7 115 LINE SMOOTH",
"4 121 OFFCURVE",
"2 124 OFFCURVE",
"45 194 CURVE SMOOTH",
"118 316 OFFCURVE",
"227 384 OFFCURVE",
"369 397 CURVE",
"369 496 LINE",
"593 318 LINE",
"369 140 LINE",
"369 243 LINE",
"277 251 OFFCURVE",
"193 234 OFFCURVE",
"123 195 CURVE SMOOTH",
"88 175 OFFCURVE",
"39 129 OFFCURVE",
"27 115 CURVE SMOOTH",
"25 113 OFFCURVE",
"22 110 OFFCURVE",
"17 110 CURVE SMOOTH"
);
},
{
closed = 1;
nodes = (
"386 376 LINE",
"372 375 LINE SMOOTH",
"237 363 OFFCURVE",
"139 302 OFFCURVE",
"70 188 CURVE SMOOTH",
"67 183 OFFCURVE",
"64 178 OFFCURVE",
"62 173 CURVE",
"80 189 OFFCURVE",
"101 206 OFFCURVE",
"119 215 CURVE SMOOTH",
"179 250 OFFCURVE",
"250 267 OFFCURVE",
"327 267 CURVE SMOOTH",
"344 267 OFFCURVE",
"361 267 OFFCURVE",
"378 265 CURVE SMOOTH",
"386 264 LINE",
"386 186 LINE",
"552 318 LINE",
"386 449 LINE"
);
}
);
width = 600;
}
);
unicode = E01A;
},
{
glyphname = uniE01B;
lastChange = "2015-03-24 20:11:47 +0000";
layers = (
{
layerId = "1CBD98DB-2A5F-432D-A235-DA2633F59FB1";
name = Regular;
paths = (
{
closed = 1;
nodes = (
"28 80 LINE SMOOTH",
"17 80 OFFCURVE",
"8 89 OFFCURVE",
"8 100 CURVE SMOOTH",
"8 439 LINE SMOOTH",
"8 450 OFFCURVE",
"17 460 OFFCURVE",
"28 460 CURVE SMOOTH",
"572 460 LINE SMOOTH",
"583 460 OFFCURVE",
"592 450 OFFCURVE",
"592 439 CURVE SMOOTH",
"592 100 LINE SMOOTH",
"592 89 OFFCURVE",
"583 80 OFFCURVE",
"572 80 CURVE SMOOTH"
);
},
{
closed = 1;
nodes = (
"569 103 LINE",
"569 437 LINE",
"30 437 LINE",
"30 103 LINE"
);
},
{
closed = 1;
nodes = (
"28 79 LINE SMOOTH",
"24 79 OFFCURVE",
"20 81 OFFCURVE",
"16 83 CURVE SMOOTH",
"5 91 LINE",
"199 285 LINE",
"300 185 LINE",
"400 285 LINE",
"595 91 LINE",
"583 83 LINE SMOOTH",
"580 81 OFFCURVE",
"576 79 OFFCURVE",
"572 79 CURVE SMOOTH"
);
},
{
closed = 1;
nodes = (
"49 102 LINE",
"550 102 LINE",
"400 253 LINE",
"315 167 LINE SMOOTH",
"307 159 OFFCURVE",
"293 159 OFFCURVE",
"285 167 CURVE SMOOTH",
"199 253 LINE"
);
},
{
closed = 1;
nodes = (
"294 162 OFFCURVE",
"289 164 OFFCURVE",
"285 168 CURVE SMOOTH",
"5 448 LINE",
"16 456 LINE SMOOTH",
"19 458 OFFCURVE",
"23 460 OFFCURVE",
"28 460 CURVE SMOOTH",
"572 460 LINE SMOOTH",
"576 460 OFFCURVE",
"580 458 OFFCURVE",
"584 456 CURVE SMOOTH",
"594 448 LINE",
"315 168 LINE SMOOTH",
"311 164 OFFCURVE",
"305 162 OFFCURVE",
"300 162 CURVE SMOOTH"
);
},
{
closed = 1;
nodes = (
"300 186 LINE",
"551 437 LINE",
"49 437 LINE"
);
}
);
width = 600;
}
);
unicode = E01B;
},
{
glyphname = uniE01C;
lastChange = "2015-03-28 16:03:59 +0000";
layers = (
{
layerId = "1CBD98DB-2A5F-432D-A235-DA2633F59FB1";
name = Regular;
paths = (
{
closed = 1;
nodes = (
"395 0 LINE SMOOTH",
"355 0 OFFCURVE",
"316 33 OFFCURVE",
"316 74 CURVE SMOOTH",
"316 297 LINE SMOOTH",
"316 394 OFFCURVE",
"400 472 OFFCURVE",
"497 472 CURVE SMOOTH",
"517 472 LINE SMOOTH",
"535 472 OFFCURVE",
"550 457 OFFCURVE",
"550 439 CURVE SMOOTH",
"550 398 LINE SMOOTH",
"550 380 OFFCURVE",
"535 365 OFFCURVE",
"517 365 CURVE SMOOTH",
"497 365 LINE SMOOTH",
"459 365 OFFCURVE",
"428 335 OFFCURVE",
"428 297 CURVE SMOOTH",
"428 286 LINE SMOOTH",
"428 277 OFFCURVE",
"436 269 OFFCURVE",
"446 269 CURVE SMOOTH",
"517 269 LINE SMOOTH",
"558 269 OFFCURVE",
"591 236 OFFCURVE",
"591 195 CURVE SMOOTH",
"591 74 LINE SMOOTH",
"591 33 OFFCURVE",
"558 0 OFFCURVE",
"517 0 CURVE SMOOTH"
);
},
{
closed = 1;
nodes = (
"413 453 OFFCURVE",
"344 383 OFFCURVE",
"344 299 CURVE SMOOTH",
"344 76 LINE SMOOTH",
"344 48 OFFCURVE",
"366 25 OFFCURVE",
"393 25 CURVE SMOOTH",
"519 25 LINE SMOOTH",
"546 25 OFFCURVE",
"568 48 OFFCURVE",
"568 76 CURVE SMOOTH",
"568 194 LINE SMOOTH",
"568 222 OFFCURVE",
"546 244 OFFCURVE",
"519 244 CURVE SMOOTH",
"446 244 LINE SMOOTH",
"421 244 OFFCURVE",
"401 264 OFFCURVE",
"401 287 CURVE SMOOTH",
"401 299 LINE SMOOTH",
"401 352 OFFCURVE",
"445 395 OFFCURVE",
"498 395 CURVE SMOOTH",
"519 395 LINE SMOOTH",
"523 395 OFFCURVE",
"527 399 OFFCURVE",
"527 402 CURVE SMOOTH",
"527 445 LINE SMOOTH",
"527 449 OFFCURVE",
"523 453 OFFCURVE",
"519 453 CURVE SMOOTH",
"498 453 LINE SMOOTH"
);
},
{
closed = 1;
nodes = (
"81 0 LINE SMOOTH",
"40 0 OFFCURVE",
"7 33 OFFCURVE",
"7 74 CURVE SMOOTH",
"7 297 LINE SMOOTH",
"7 394 OFFCURVE",
"86 472 OFFCURVE",
"183 472 CURVE SMOOTH",
"203 472 LINE SMOOTH",
"221 472 OFFCURVE",
"236 457 OFFCURVE",
"236 439 CURVE SMOOTH",
"236 398 LINE SMOOTH",
"236 380 OFFCURVE",
"221 365 OFFCURVE",
"203 365 CURVE SMOOTH",
"183 365 LINE SMOOTH",
"145 365 OFFCURVE",
"114 335 OFFCURVE",
"114 297 CURVE SMOOTH",
"114 286 LINE SMOOTH",
"114 277 OFFCURVE",
"122 269 OFFCURVE",
"131 269 CURVE SMOOTH",
"203 269 LINE SMOOTH",
"243 269 OFFCURVE",
"277 236 OFFCURVE",
"277 195 CURVE SMOOTH",
"277 74 LINE SMOOTH",
"277 33 OFFCURVE",
"243 0 OFFCURVE",
"203 0 CURVE SMOOTH"
);
},
{
closed = 1;
nodes = (
"99 454 OFFCURVE",
"30 384 OFFCURVE",
"30 300 CURVE SMOOTH",
"30 76 LINE SMOOTH",
"30 48 OFFCURVE",
"52 25 OFFCURVE",
"79 25 CURVE SMOOTH",
"205 25 LINE SMOOTH",
"231 25 OFFCURVE",
"254 48 OFFCURVE",
"254 76 CURVE SMOOTH",
"254 195 LINE SMOOTH",
"254 223 OFFCURVE",
"231 245 OFFCURVE",
"205 245 CURVE SMOOTH",
"131 245 LINE SMOOTH",
"107 245 OFFCURVE",
"88 265 OFFCURVE",
"88 288 CURVE SMOOTH",
"88 300 LINE SMOOTH",
"88 353 OFFCURVE",
"130 396 OFFCURVE",
"184 396 CURVE SMOOTH",
"205 396 LINE SMOOTH",
"208 396 OFFCURVE",
"212 400 OFFCURVE",
"212 403 CURVE SMOOTH",
"212 446 LINE SMOOTH",
"212 450 OFFCURVE",
"208 454 OFFCURVE",
"205 454 CURVE SMOOTH",
"184 454 LINE SMOOTH"
);
}
);
width = 600;
}
);
unicode = E01C;
},
{
glyphname = uniE01D;
lastChange = "2015-03-28 16:01:11 +0000";
layers = (
{
layerId = "1CBD98DB-2A5F-432D-A235-DA2633F59FB1";
name = Regular;
paths = (
{
closed = 1;
nodes = (
"231 2 LINE",
"231 15 LINE SMOOTH",
"231 67 OFFCURVE",
"188 110 OFFCURVE",
"136 110 CURVE SMOOTH",
"120 110 OFFCURVE",
"103 105 OFFCURVE",
"89 97 CURVE SMOOTH",
"78 90 LINE",
"9 209 LINE",
"20 216 LINE SMOOTH",
"66 242 OFFCURVE",
"81 300 OFFCURVE",
"55 345 CURVE SMOOTH",
"47 360 OFFCURVE",
"35 372 OFFCURVE",
"20 380 CURVE SMOOTH",
"9 387 LINE",
"78 506 LINE",
"89 499 LINE SMOOTH",
"104 491 OFFCURVE",
"120 486 OFFCURVE",
"137 486 CURVE SMOOTH",
"171 486 OFFCURVE",
"202 504 OFFCURVE",
"219 533 CURVE SMOOTH",
"227 548 OFFCURVE",
"232 564 OFFCURVE",
"231 581 CURVE SMOOTH",
"231 594 LINE",
"369 594 LINE",
"369 581 LINE SMOOTH",
"369 529 OFFCURVE",
"411 486 OFFCURVE",
"463 486 CURVE SMOOTH",
"480 486 OFFCURVE",
"497 490 OFFCURVE",
"511 499 CURVE SMOOTH",
"522 505 LINE",
"591 386 LINE",
"580 380 LINE SMOOTH",
"534 354 OFFCURVE",
"518 295 OFFCURVE",
"545 250 CURVE SMOOTH",
"553 236 OFFCURVE",
"565 224 OFFCURVE",
"579 216 CURVE SMOOTH",
"590 209 LINE",
"522 90 LINE",
"511 97 LINE SMOOTH",
"496 105 OFFCURVE",
"480 109 OFFCURVE",
"463 109 CURVE SMOOTH",
"429 109 OFFCURVE",
"398 91 OFFCURVE",
"381 62 CURVE SMOOTH",
"373 48 OFFCURVE",
"368 32 OFFCURVE",
"368 15 CURVE SMOOTH",
"368 2 LINE"
);
},
{
closed = 1;
nodes = (
"343 28 LINE",
"345 45 OFFCURVE",
"350 61 OFFCURVE",
"359 75 CURVE SMOOTH",
"380 112 OFFCURVE",
"420 135 OFFCURVE",
"463 135 CURVE SMOOTH",
"480 135 OFFCURVE",
"497 132 OFFCURVE",
"512 125 CURVE",
"555 200 LINE",
"542 210 OFFCURVE",
"530 223 OFFCURVE",
"522 237 CURVE SMOOTH",
"491 291 OFFCURVE",
"506 359 OFFCURVE",
"556 395 CURVE",
"512 470 LINE",
"497 464 OFFCURVE",
"480 460 OFFCURVE",
"463 460 CURVE SMOOTH",
"401 460 OFFCURVE",
"350 507 OFFCURVE",
"343 568 CURVE",
"257 568 LINE",
"255 551 OFFCURVE",
"250 535 OFFCURVE",
"241 520 CURVE SMOOTH",
"220 483 OFFCURVE",
"180 460 OFFCURVE",
"137 460 CURVE SMOOTH",
"120 460 OFFCURVE",
"103 464 OFFCURVE",
"88 471 CURVE",
"44 396 LINE",
"58 386 OFFCURVE",
"69 373 OFFCURVE",
"78 358 CURVE SMOOTH",
"109 305 OFFCURVE",
"93 237 OFFCURVE",
"44 201 CURVE",
"88 125 LINE",
"103 132 OFFCURVE",
"120 136 OFFCURVE",
"136 136 CURVE SMOOTH",
"198 136 OFFCURVE",
"250 88 OFFCURVE",
"256 28 CURVE"
);
},
{
closed = 1;
nodes = (
"233 177 OFFCURVE",
"179 231 OFFCURVE",
"179 298 CURVE SMOOTH",
"179 365 OFFCURVE",
"233 419 OFFCURVE",
"300 419 CURVE SMOOTH",
"367 419 OFFCURVE",
"421 365 OFFCURVE",
"421 298 CURVE SMOOTH",
"421 231 OFFCURVE",
"367 177 OFFCURVE",
"300 177 CURVE SMOOTH"
);
},
{
closed = 1;
nodes = (
"247 393 OFFCURVE",
"205 351 OFFCURVE",
"205 298 CURVE SMOOTH",
"205 246 OFFCURVE",
"247 203 OFFCURVE",
"300 203 CURVE SMOOTH",
"353 203 OFFCURVE",
"395 246 OFFCURVE",
"395 298 CURVE SMOOTH",
"395 351 OFFCURVE",
"353 393 OFFCURVE",
"300 393 CURVE SMOOTH"
);
}
);
width = 600;
}
);
unicode = E01D;
},
{
glyphname = uniE01E;
lastChange = "2015-03-28 16:07:40 +0000";
layers = (
{
layerId = "1CBD98DB-2A5F-432D-A235-DA2633F59FB1";
name = Regular;
paths = (
{
closed = 1;
nodes = (
"62 -2 OFFCURVE",
"51 7 OFFCURVE",
"49 20 CURVE",
"48 21 LINE SMOOTH",
"46 33 OFFCURVE",
"53 41 OFFCURVE",
"58 47 CURVE SMOOTH",
"60 49 LINE SMOOTH",
"63 52 OFFCURVE",
"65 55 OFFCURVE",
"68 58 CURVE SMOOTH",
"83 74 OFFCURVE",
"99 92 OFFCURVE",
"111 127 CURVE",
"45 167 OFFCURVE",
"8 226 OFFCURVE",
"8 289 CURVE SMOOTH",
"8 405 OFFCURVE",
"139 500 OFFCURVE",
"299 500 CURVE SMOOTH",
"460 500 OFFCURVE",
"590 405 OFFCURVE",
"590 289 CURVE SMOOTH",
"590 172 OFFCURVE",
"460 77 OFFCURVE",
"299 77 CURVE SMOOTH",
"286 77 OFFCURVE",
"272 78 OFFCURVE",
"258 79 CURVE",
"217 44 OFFCURVE",
"169 19 OFFCURVE",
"114 5 CURVE SMOOTH",
"104 2 OFFCURVE",
"92 0 OFFCURVE",
"77 -2 CURVE",
"75 -2 LINE"
);
},
{
closed = 1;
nodes = (
"74 23 OFFCURVE",
"74 23 OFFCURVE",
"75 23 CURVE",
"87 25 OFFCURVE",
"98 27 OFFCURVE",
"108 29 CURVE SMOOTH",
"160 43 OFFCURVE",
"206 67 OFFCURVE",
"246 102 CURVE SMOOTH",
"250 106 LINE",
"256 105 LINE SMOOTH",
"271 103 OFFCURVE",
"285 103 OFFCURVE",
"299 103 CURVE SMOOTH",
"446 103 OFFCURVE",
"565 186 OFFCURVE",
"565 289 CURVE SMOOTH",
"565 391 OFFCURVE",
"446 475 OFFCURVE",
"299 475 CURVE SMOOTH",
"153 475 OFFCURVE",
"33 391 OFFCURVE",
"33 289 CURVE SMOOTH",
"33 232 OFFCURVE",
"69 180 OFFCURVE",
"132 144 CURVE SMOOTH",
"141 139 LINE",
"138 130 LINE SMOOTH",
"125 82 OFFCURVE",
"104 60 OFFCURVE",
"87 41 CURVE SMOOTH",
"84 38 OFFCURVE",
"81 35 OFFCURVE",
"79 32 CURVE SMOOTH",
"77 30 LINE SMOOTH",
"76 28 OFFCURVE",
"74 26 OFFCURVE",
"73 25 CURVE",
"73 24 LINE"
);
},
{
closed = 1;
nodes = (
"200 268 LINE",
"200 293 LINE",
"402 293 LINE",
"402 268 LINE"
);
},
{
closed = 1;
nodes = (
"289 179 LINE",
"289 381 LINE",
"314 381 LINE",
"314 179 LINE"
);
}
);
width = 600;
}
);
unicode = E01E;
},
{
glyphname = uniE01F;
lastChange = "2015-03-28 16:08:08 +0000";
layers = (
{
layerId = "1CBD98DB-2A5F-432D-A235-DA2633F59FB1";
name = Regular;
paths = (
{
closed = 1;
nodes = (
"62 -2 OFFCURVE",
"51 7 OFFCURVE",
"48 20 CURVE",
"48 21 LINE SMOOTH",
"46 33 OFFCURVE",
"53 41 OFFCURVE",
"58 47 CURVE SMOOTH",
"59 49 LINE SMOOTH",
"62 52 OFFCURVE",
"65 55 OFFCURVE",
"68 58 CURVE SMOOTH",
"83 74 OFFCURVE",
"99 92 OFFCURVE",
"111 127 CURVE",
"45 167 OFFCURVE",
"8 226 OFFCURVE",
"8 289 CURVE SMOOTH",
"8 405 OFFCURVE",
"139 500 OFFCURVE",
"299 500 CURVE SMOOTH",
"460 500 OFFCURVE",
"590 405 OFFCURVE",
"590 289 CURVE SMOOTH",
"590 172 OFFCURVE",
"460 77 OFFCURVE",
"299 77 CURVE SMOOTH",
"286 77 OFFCURVE",
"272 78 OFFCURVE",
"258 79 CURVE",
"217 44 OFFCURVE",
"168 19 OFFCURVE",
"114 5 CURVE SMOOTH",
"104 2 OFFCURVE",
"91 0 OFFCURVE",
"77 -2 CURVE",
"74 -2 LINE"
);
},
{
closed = 1;
nodes = (
"74 23 OFFCURVE",
"74 23 OFFCURVE",
"74 23 CURVE",
"87 25 OFFCURVE",
"98 27 OFFCURVE",
"108 29 CURVE SMOOTH",
"160 43 OFFCURVE",
"206 67 OFFCURVE",
"246 102 CURVE SMOOTH",
"250 106 LINE",
"255 105 LINE SMOOTH",
"270 103 OFFCURVE",
"285 103 OFFCURVE",
"299 103 CURVE SMOOTH",
"446 103 OFFCURVE",
"565 186 OFFCURVE",
"565 289 CURVE SMOOTH",
"565 391 OFFCURVE",
"446 475 OFFCURVE",
"299 475 CURVE SMOOTH",
"153 475 OFFCURVE",
"33 391 OFFCURVE",
"33 289 CURVE SMOOTH",
"33 232 OFFCURVE",
"69 180 OFFCURVE",
"132 144 CURVE SMOOTH",
"141 139 LINE",
"138 130 LINE SMOOTH",
"124 82 OFFCURVE",
"104 60 OFFCURVE",
"86 41 CURVE SMOOTH",
"84 38 OFFCURVE",
"81 35 OFFCURVE",
"79 32 CURVE SMOOTH",
"77 30 LINE SMOOTH",
"75 28 OFFCURVE",
"73 26 OFFCURVE",
"73 25 CURVE",
"73 24 LINE"
);
},
{
closed = 1;
nodes = (
"200 268 LINE",
"200 293 LINE",
"402 293 LINE",
"402 268 LINE"
);
}
);
width = 600;
}
);
unicode = E01F;
},
{
glyphname = uniE020;
lastChange = "2015-03-28 16:08:40 +0000";
layers = (
{
layerId = "1CBD98DB-2A5F-432D-A235-DA2633F59FB1";
name = Regular;
paths = (
{
closed = 1;
nodes = (
"298 253 LINE",
"385 339 LINE SMOOTH",
"386 341 OFFCURVE",
"388 341 OFFCURVE",
"389 341 CURVE SMOOTH",
"392 341 OFFCURVE",
"393 341 OFFCURVE",
"395 339 CURVE SMOOTH",
"406 328 LINE SMOOTH",
"407 327 OFFCURVE",
"407 325 OFFCURVE",
"407 324 CURVE SMOOTH",
"407 321 OFFCURVE",
"407 320 OFFCURVE",
"406 318 CURVE SMOOTH",
"302 216 LINE SMOOTH",
"301 215 OFFCURVE",
"300 213 OFFCURVE",
"298 213 CURVE SMOOTH",
"295 213 OFFCURVE",
"294 215 OFFCURVE",
"292 216 CURVE SMOOTH",
"190 318 LINE SMOOTH",
"189 320 OFFCURVE",
"187 321 OFFCURVE",
"187 324 CURVE SMOOTH",
"187 325 OFFCURVE",
"189 327 OFFCURVE",
"190 328 CURVE SMOOTH",
"202 339 LINE SMOOTH",
"202 341 OFFCURVE",
"204 341 OFFCURVE",
"206 341 CURVE SMOOTH",
"207 341 OFFCURVE",
"210 341 OFFCURVE",
"212 339 CURVE SMOOTH"
);
},
{
closed = 1;
nodes = (
"539 553 OFFCURVE",
"566 526 OFFCURVE",
"566 492 CURVE SMOOTH",
"566 84 LINE SMOOTH",
"566 50 OFFCURVE",
"539 23 OFFCURVE",
"506 23 CURVE SMOOTH",
"90 23 LINE SMOOTH",
"56 23 OFFCURVE",
"29 50 OFFCURVE",
"29 84 CURVE SMOOTH",
"29 492 LINE SMOOTH",
"29 526 OFFCURVE",
"56 553 OFFCURVE",
"90 553 CURVE SMOOTH",
"506 553 LINE SMOOTH"
);
},
{
closed = 1;
nodes = (
"90 577 LINE SMOOTH",
"43 577 OFFCURVE",
"5 539 OFFCURVE",
"5 492 CURVE SMOOTH",
"5 84 LINE SMOOTH",
"5 37 OFFCURVE",
"43 -1 OFFCURVE",
"90 -1 CURVE SMOOTH",
"506 -1 LINE SMOOTH",
"553 -1 OFFCURVE",
"591 37 OFFCURVE",
"591 84 CURVE SMOOTH",
"591 492 LINE SMOOTH",
"591 539 OFFCURVE",
"553 577 OFFCURVE",
"506 577 CURVE SMOOTH"
);
}
);
width = 600;
}
);
unicode = E020;
},
{
glyphname = uniE021;
lastChange = "2015-03-28 10:33:26 +0000";
layers = (
{
layerId = "1CBD98DB-2A5F-432D-A235-DA2633F59FB1";
name = Regular;
paths = (
{
closed = 1;
nodes = (
"137 1 OFFCURVE",
"5 133 OFFCURVE",
"5 295 CURVE SMOOTH",
"5 458 OFFCURVE",
"137 590 OFFCURVE",
"299 590 CURVE SMOOTH",
"462 590 OFFCURVE",
"594 458 OFFCURVE",
"594 295 CURVE SMOOTH",
"594 133 OFFCURVE",
"462 1 OFFCURVE",
"299 1 CURVE SMOOTH"
);
},
{
closed = 1;
nodes = (
"151 564 OFFCURVE",
"30 444 OFFCURVE",
"30 295 CURVE SMOOTH",
"30 147 OFFCURVE",
"151 26 OFFCURVE",
"299 26 CURVE SMOOTH",
"448 26 OFFCURVE",
"568 147 OFFCURVE",
"568 295 CURVE SMOOTH",
"568 444 OFFCURVE",
"448 564 OFFCURVE",
"299 564 CURVE SMOOTH"
);
},
{
closed = 1;
nodes = (
"299 259 LINE",
"378 338 LINE SMOOTH",
"380 339 OFFCURVE",
"381 340 OFFCURVE",
"383 340 CURVE SMOOTH",
"385 340 OFFCURVE",
"386 339 OFFCURVE",
"388 338 CURVE SMOOTH",
"398 328 LINE SMOOTH",
"399 327 OFFCURVE",
"400 325 OFFCURVE",
"400 323 CURVE SMOOTH",
"400 322 OFFCURVE",
"399 320 OFFCURVE",
"398 319 CURVE SMOOTH",
"303 224 LINE SMOOTH",
"302 223 OFFCURVE",
"300 222 OFFCURVE",
"299 222 CURVE SMOOTH",
"297 222 OFFCURVE",
"295 223 OFFCURVE",
"294 224 CURVE SMOOTH",
"200 319 LINE SMOOTH",
"199 320 OFFCURVE",
"198 322 OFFCURVE",
"198 323 CURVE SMOOTH",
"198 325 OFFCURVE",
"199 327 OFFCURVE",
"200 328 CURVE SMOOTH",
"210 338 LINE SMOOTH",
"211 339 OFFCURVE",
"213 340 OFFCURVE",
"215 340 CURVE SMOOTH",
"216 340 OFFCURVE",
"218 339 OFFCURVE",
"219 338 CURVE SMOOTH"
);
}
);
width = 600;
}
);
unicode = E021;
},
{
glyphname = uniE022;
lastChange = "2015-03-28 16:33:31 +0000";
layers = (
{
layerId = "1CBD98DB-2A5F-432D-A235-DA2633F59FB1";
name = Regular;
paths = (
{
closed = 1;
nodes = (
"312 7 OFFCURVE",
"311 3 OFFCURVE",
"308 1 CURVE SMOOTH",
"303 -4 OFFCURVE",
"295 -3 OFFCURVE",
"291 2 CURVE SMOOTH",
"4 319 LINE SMOOTH",
"0 324 OFFCURVE",
"0 331 OFFCURVE",
"5 336 CURVE SMOOTH",
"10 340 OFFCURVE",
"18 340 OFFCURVE",
"22 335 CURVE SMOOTH",
"309 18 LINE SMOOTH",
"311 16 OFFCURVE",
"312 13 OFFCURVE",
"312 10 CURVE SMOOTH"
);
},
{
closed = 1;
nodes = (
"600 324 OFFCURVE",
"598 321 OFFCURVE",
"596 319 CURVE SMOOTH",
"309 2 LINE SMOOTH",
"304 -3 OFFCURVE",
"297 -4 OFFCURVE",
"292 1 CURVE SMOOTH",
"287 5 OFFCURVE",
"286 13 OFFCURVE",
"291 18 CURVE SMOOTH",
"577 335 LINE SMOOTH",
"582 340 OFFCURVE",
"590 340 OFFCURVE",
"595 336 CURVE SMOOTH",
"597 334 OFFCURVE",
"600 330 OFFCURVE",
"600 327 CURVE SMOOTH"
);
}
);
width = 600;
}
);
unicode = E022;
},
{
glyphname = uniE024;
lastChange = "2015-03-28 16:15:58 +0000";
layers = (
{
layerId = "1CBD98DB-2A5F-432D-A235-DA2633F59FB1";
name = Regular;
paths = (
{
closed = 1;
nodes = (
"299 481 LINE",
"299 316 LINE",
"216 302 LINE SMOOTH",
"125 250 LINE",
"-2 310 LINE"
);
},
{
closed = 1;
nodes = (
"299 481 LINE",
"299 316 LINE",
"383 303 LINE SMOOTH",
"473 250 LINE",
"600 310 LINE"
);
},
{
closed = 1;
nodes = (
"149 148 LINE",
"149 206 LINE",
"151 206 LINE",
"156 250 OFFCURVE",
"221 285 OFFCURVE",
"299 285 CURVE SMOOTH",
"378 285 OFFCURVE",
"443 250 OFFCURVE",
"448 206 CURVE",
"449 148 LINE",
"441 148 LINE",
"420 179 OFFCURVE",
"365 189 OFFCURVE",
"299 189 CURVE SMOOTH",
"234 189 OFFCURVE",
"178 179 OFFCURVE",
"158 148 CURVE"
);
},
{
closed = 1;
nodes = (
"448 166 OFFCURVE",
"449 161 OFFCURVE",
"449 158 CURVE SMOOTH",
"449 117 OFFCURVE",
"381 70 OFFCURVE",
"299 70 CURVE SMOOTH",
"218 70 OFFCURVE",
"149 117 OFFCURVE",
"149 158 CURVE SMOOTH",
"149 161 OFFCURVE",
"151 166 OFFCURVE",
"152 170 CURVE",
"163 133 OFFCURVE",
"225 108 OFFCURVE",
"299 108 CURVE SMOOTH",
"374 108 OFFCURVE",
"436 133 OFFCURVE",
"447 170 CURVE"
);
},
{
closed = 1;
nodes = (
"47 210 LINE",
"47 303 LINE",
"56 303 LINE",
"56 210 LINE"
);
},
{
closed = 1;
nodes = (
"70 197 OFFCURVE",
"62 189 OFFCURVE",
"52 189 CURVE SMOOTH",
"43 189 OFFCURVE",
"35 197 OFFCURVE",
"35 210 CURVE SMOOTH",
"35 223 OFFCURVE",
"43 230 OFFCURVE",
"52 230 CURVE SMOOTH",
"62 230 OFFCURVE",
"70 223 OFFCURVE",
"70 210 CURVE SMOOTH"
);
},
{
closed = 1;
nodes = (
"24 96 LINE",
"39 184 LINE",
"52 194 LINE",
"66 184 LINE",
"75 96 LINE"
);
}
);
width = 600;
}
);
unicode = E024;
},
{
glyphname = uniE025;
lastChange = "2015-03-28 16:36:54 +0000";
layers = (
{
layerId = "1CBD98DB-2A5F-432D-A235-DA2633F59FB1";
name = Regular;
paths = (
{
closed = 1;
nodes = (
"337 456 OFFCURVE",
"318 437 OFFCURVE",
"318 413 CURVE SMOOTH",
"318 390 OFFCURVE",
"337 371 OFFCURVE",
"360 371 CURVE SMOOTH",
"383 371 OFFCURVE",
"403 390 OFFCURVE",
"403 413 CURVE SMOOTH",
"403 437 OFFCURVE",
"383 456 OFFCURVE",
"360 456 CURVE SMOOTH"
);
},
{
closed = 1;
nodes = (
"347 411 OFFCURVE",
"340 418 OFFCURVE",
"340 429 CURVE SMOOTH",
"340 439 OFFCURVE",
"347 447 OFFCURVE",
"357 447 CURVE SMOOTH",
"368 447 OFFCURVE",
"376 439 OFFCURVE",
"376 429 CURVE SMOOTH",
"376 418 OFFCURVE",
"368 411 OFFCURVE",
"357 411 CURVE SMOOTH"
);
},
{
closed = 1;
nodes = (
"204 456 OFFCURVE",
"185 437 OFFCURVE",
"185 413 CURVE SMOOTH",
"185 390 OFFCURVE",
"204 371 OFFCURVE",
"227 371 CURVE SMOOTH",
"250 371 OFFCURVE",
"270 390 OFFCURVE",
"270 413 CURVE SMOOTH",
"270 437 OFFCURVE",
"250 456 OFFCURVE",
"227 456 CURVE SMOOTH"
);
},
{
closed = 1;
nodes = (
"214 411 OFFCURVE",
"207 418 OFFCURVE",
"207 429 CURVE SMOOTH",
"207 439 OFFCURVE",
"214 447 OFFCURVE",
"224 447 CURVE SMOOTH",
"235 447 OFFCURVE",
"243 439 OFFCURVE",
"243 429 CURVE SMOOTH",
"243 418 OFFCURVE",
"235 411 OFFCURVE",
"224 411 CURVE SMOOTH"
);
},
{
closed = 1;
nodes = (
"430 341 OFFCURVE",
"422 348 OFFCURVE",
"413 354 CURVE",
"431 371 OFFCURVE",
"442 391 OFFCURVE",
"442 413 CURVE SMOOTH",
"442 441 OFFCURVE",
"431 463 OFFCURVE",
"406 477 CURVE",
"439 495 OFFCURVE",
"460 521 OFFCURVE",
"460 551 CURVE SMOOTH",
"460 558 OFFCURVE",
"458 565 OFFCURVE",
"456 572 CURVE",
"444 535 OFFCURVE",
"398 506 OFFCURVE",
"340 496 CURVE",
"326 497 OFFCURVE",
"310 498 OFFCURVE",
"293 498 CURVE SMOOTH",
"276 498 OFFCURVE",
"260 497 OFFCURVE",
"246 496 CURVE",
"188 506 OFFCURVE",
"143 535 OFFCURVE",
"130 571 CURVE",
"128 564 OFFCURVE",
"127 557 OFFCURVE",
"127 551 CURVE SMOOTH",
"127 522 OFFCURVE",
"148 496 OFFCURVE",
"180 477 CURVE",
"155 463 OFFCURVE",
"145 441 OFFCURVE",
"145 413 CURVE SMOOTH",
"145 391 OFFCURVE",
"155 371 OFFCURVE",
"174 354 CURVE",
"163 346 OFFCURVE",
"153 337 OFFCURVE",
"144 327 CURVE",
"104 303 OFFCURVE",
"76 250 OFFCURVE",
"76 189 CURVE SMOOTH",
"76 177 OFFCURVE",
"107 121 OFFCURVE",
"152 100 CURVE",
"145 119 OFFCURVE",
"142 140 OFFCURVE",
"142 163 CURVE SMOOTH",
"142 168 OFFCURVE",
"142 173 OFFCURVE",
"142 178 CURVE",
"162 139 OFFCURVE",
"189 119 OFFCURVE",
"220 95 CURVE",
"221 84 OFFCURVE",
"217 83 OFFCURVE",
"196 43 CURVE",
"219 34 OFFCURVE",
"256 30 OFFCURVE",
"293 29 CURVE",
"330 30 OFFCURVE",
"367 34 OFFCURVE",
"390 43 CURVE",
"369 83 OFFCURVE",
"365 84 OFFCURVE",
"366 95 CURVE",
"401 122 OFFCURVE",
"430 146 OFFCURVE",
"450 190 CURVE",
"451 181 OFFCURVE",
"451 172 OFFCURVE",
"451 163 CURVE SMOOTH",
"451 140 OFFCURVE",
"448 119 OFFCURVE",
"441 100 CURVE",
"486 121 OFFCURVE",
"517 177 OFFCURVE",
"517 189 CURVE SMOOTH",
"517 256 OFFCURVE",
"484 313 OFFCURVE",
"437 333 CURVE"
);
},
{
closed = 1;
nodes = (
"196 357 OFFCURVE",
"170 382 OFFCURVE",
"170 413 CURVE SMOOTH",
"170 445 OFFCURVE",
"196 470 OFFCURVE",
"227 470 CURVE SMOOTH",
"259 470 OFFCURVE",
"284 445 OFFCURVE",
"284 413 CURVE SMOOTH",
"284 382 OFFCURVE",
"259 357 OFFCURVE",
"227 357 CURVE SMOOTH"
);
},
{
closed = 1;
nodes = (
"267 350 LINE",
"294 368 LINE",
"321 350 LINE",
"294 302 LINE"
);
},
{
closed = 1;
nodes = (
"329 357 OFFCURVE",
"303 382 OFFCURVE",
"303 413 CURVE SMOOTH",
"303 445 OFFCURVE",
"329 470 OFFCURVE",
"360 470 CURVE SMOOTH",
"392 470 OFFCURVE",
"417 445 OFFCURVE",
"417 413 CURVE SMOOTH",
"417 382 OFFCURVE",
"392 357 OFFCURVE",
"360 357 CURVE SMOOTH"
);
}
);
width = 600;
}
);
unicode = E025;
},
{
glyphname = uniE026;
lastChange = "2015-03-28 16:06:23 +0000";
layers = (
{
layerId = "1CBD98DB-2A5F-432D-A235-DA2633F59FB1";
name = Regular;
paths = (
{
closed = 1;
nodes = (
"495 122 OFFCURVE",
"481 118 OFFCURVE",
"468 116 CURVE",
"442 107 OFFCURVE",
"416 98 OFFCURVE",
"389 89 CURVE",
"385 104 OFFCURVE",
"379 121 OFFCURVE",
"375 136 CURVE",
"373 156 OFFCURVE",
"377 168 OFFCURVE",
"380 188 CURVE SMOOTH",
"388 228 OFFCURVE",
"393 227 OFFCURVE",
"406 266 CURVE",
"416 292 OFFCURVE",
"431 315 OFFCURVE",
"441 342 CURVE SMOOTH",
"451 370 OFFCURVE",
"460 400 OFFCURVE",
"464 429 CURVE",
"465 439 OFFCURVE",
"468 452 OFFCURVE",
"461 460 CURVE SMOOTH",
"427 496 OFFCURVE",
"380 515 OFFCURVE",
"340 543 CURVE",
"316 567 OFFCURVE",
"315 603 OFFCURVE",
"307 634 CURVE",
"302 634 LINE",
"300 595 LINE",
"298 634 LINE",
"293 634 LINE",
"284 606 OFFCURVE",
"285 573 OFFCURVE",
"265 549 CURVE",
"234 522 OFFCURVE",
"192 506 OFFCURVE",
"160 479 CURVE SMOOTH",
"150 471 OFFCURVE",
"141 463 OFFCURVE",
"133 455 CURVE",
"137 415 OFFCURVE",
"146 376 OFFCURVE",
"160 339 CURVE SMOOTH",
"169 315 OFFCURVE",
"182 294 OFFCURVE",
"192 270 CURVE",
"204 237 OFFCURVE",
"209 233 OFFCURVE",
"216 206 CURVE SMOOTH",
"224 180 OFFCURVE",
"227 164 OFFCURVE",
"225 138 CURVE",
"222 122 OFFCURVE",
"215 105 OFFCURVE",
"210 90 CURVE",
"179 101 OFFCURVE",
"148 114 OFFCURVE",
"115 119 CURVE",
"90 127 OFFCURVE",
"70 106 OFFCURVE",
"60 86 CURVE",
"61 71 LINE",
"71 58 OFFCURVE",
"82 45 OFFCURVE",
"95 36 CURVE SMOOTH",
"114 21 OFFCURVE",
"138 12 OFFCURVE",
"160 1 CURVE",
"192 1 LINE SMOOTH",
"263 1 OFFCURVE",
"330 -2 OFFCURVE",
"402 1 CURVE",
"441 1 LINE",
"467 14 OFFCURVE",
"494 27 OFFCURVE",
"518 45 CURVE",
"527 51 OFFCURVE",
"535 61 OFFCURVE",
"540 71 CURVE",
"540 86 LINE",
"533 100 OFFCURVE",
"522 112 OFFCURVE",
"509 119 CURVE"
);
},
{
closed = 1;
nodes = (
"328 328 OFFCURVE",
"325 341 OFFCURVE",
"331 352 CURVE",
"337 365 OFFCURVE",
"347 376 OFFCURVE",
"350 390 CURVE",
"353 413 OFFCURVE",
"348 437 OFFCURVE",
"336 457 CURVE SMOOTH",
"323 482 OFFCURVE",
"283 483 OFFCURVE",
"266 462 CURVE SMOOTH",
"252 442 OFFCURVE",
"251 419 OFFCURVE",
"249 396 CURVE",
"249 375 OFFCURVE",
"271 361 OFFCURVE",
"272 339 CURVE",
"276 321 OFFCURVE",
"260 312 OFFCURVE",
"247 306 CURVE",
"236 320 OFFCURVE",
"224 332 OFFCURVE",
"212 346 CURVE",
"201 362 OFFCURVE",
"200 383 OFFCURVE",
"191 401 CURVE",
"187 413 OFFCURVE",
"175 428 OFFCURVE",
"186 439 CURVE",
"217 479 OFFCURVE",
"259 510 OFFCURVE",
"300 539 CURVE",
"330 518 OFFCURVE",
"360 494 OFFCURVE",
"388 469 CURVE",
"400 457 OFFCURVE",
"412 445 OFFCURVE",
"418 429 CURVE",
"418 420 OFFCURVE",
"413 413 OFFCURVE",
"411 405 CURVE",
"402 388 OFFCURVE",
"399 367 OFFCURVE",
"390 350 CURVE",
"379 334 OFFCURVE",
"363 323 OFFCURVE",
"353 306 CURVE",
"346 309 OFFCURVE",
"339 313 OFFCURVE",
"333 317 CURVE"
);
}
);
width = 600;
}
);
unicode = E026;
},
{
glyphname = uniE027;
lastChange = "2015-03-28 14:49:17 +0000";
layers = (
{
layerId = "1CBD98DB-2A5F-432D-A235-DA2633F59FB1";
name = Regular;
paths = (
{
closed = 1;
nodes = (
"374 280 OFFCURVE",
"343 244 OFFCURVE",
"305 244 CURVE SMOOTH",
"267 244 OFFCURVE",
"237 280 OFFCURVE",
"237 324 CURVE SMOOTH",
"237 368 OFFCURVE",
"267 404 OFFCURVE",
"305 404 CURVE SMOOTH",
"343 404 OFFCURVE",
"374 368 OFFCURVE",
"374 324 CURVE SMOOTH"
);
},
{
closed = 1;
nodes = (
"236 474 OFFCURVE",
"184 451 OFFCURVE",
"184 423 CURVE SMOOTH",
"184 407 OFFCURVE",
"200 393 OFFCURVE",
"226 383 CURVE",
"230 391 OFFCURVE",
"238 397 OFFCURVE",
"250 402 CURVE",
"229 406 OFFCURVE",
"216 413 OFFCURVE",
"216 421 CURVE SMOOTH",
"216 434 OFFCURVE",
"255 445 OFFCURVE",
"303 445 CURVE SMOOTH",
"351 445 OFFCURVE",
"390 434 OFFCURVE",
"390 421 CURVE SMOOTH",
"390 413 OFFCURVE",
"376 406 OFFCURVE",
"354 401 CURVE",
"365 397 OFFCURVE",
"373 390 OFFCURVE",
"376 383 CURVE",
"402 393 OFFCURVE",
"419 407 OFFCURVE",
"419 423 CURVE SMOOTH",
"419 451 OFFCURVE",
"366 474 OFFCURVE",
"301 474 CURVE SMOOTH"
);
},
{
closed = 1;
nodes = (
"419 195 OFFCURVE",
"416 227 OFFCURVE",
"342 236 CURVE",
"300 214 LINE",
"258 235 LINE",
"188 226 OFFCURVE",
"184 194 OFFCURVE",
"184 155 CURVE SMOOTH",
"184 154 OFFCURVE",
"184 153 OFFCURVE",
"184 152 CURVE",
"184 152 LINE",
"184 48 LINE SMOOTH",
"419 48 LINE",
"419 152 LINE",
"419 152 LINE",
"419 153 OFFCURVE",
"419 154 OFFCURVE",
"419 155 CURVE SMOOTH"
);
},
{
closed = 1;
nodes = (
"125 330 OFFCURVE",
"138 329 OFFCURVE",
"150 324 CURVE SMOOTH",
"167 317 OFFCURVE",
"180 304 OFFCURVE",
"192 290 CURVE SMOOTH",
"202 278 OFFCURVE",
"214 260 OFFCURVE",
"223 246 CURVE",
"213 240 OFFCURVE",
"199 236 OFFCURVE",
"191 228 CURVE SMOOTH",
"181 216 OFFCURVE",
"177 207 OFFCURVE",
"173 193 CURVE SMOOTH",
"169 181 OFFCURVE",
"170 175 OFFCURVE",
"169 165 CURVE SMOOTH",
"169 159 OFFCURVE",
"169 114 OFFCURVE",
"170 109 CURVE",
"163 103 OFFCURVE",
"150 95 OFFCURVE",
"140 95 CURVE SMOOTH",
"134 95 OFFCURVE",
"133 103 OFFCURVE",
"132 108 CURVE",
"127 100 OFFCURVE",
"123 91 OFFCURVE",
"114 88 CURVE",
"111 87 OFFCURVE",
"107 87 OFFCURVE",
"105 90 CURVE",
"104 93 OFFCURVE",
"104 98 OFFCURVE",
"104 102 CURVE",
"100 98 OFFCURVE",
"99 93 OFFCURVE",
"95 89 CURVE",
"91 84 OFFCURVE",
"84 80 OFFCURVE",
"77 83 CURVE",
"72 87 OFFCURVE",
"75 93 OFFCURVE",
"75 99 CURVE",
"71 92 OFFCURVE",
"67 85 OFFCURVE",
"60 81 CURVE SMOOTH",
"56 79 OFFCURVE",
"49 78 OFFCURVE",
"45 83 CURVE SMOOTH",
"43 87 OFFCURVE",
"45 91 OFFCURVE",
"45 95 CURVE",
"42 90 OFFCURVE",
"40 85 OFFCURVE",
"35 82 CURVE SMOOTH",
"32 80 OFFCURVE",
"27 78 OFFCURVE",
"23 79 CURVE",
"19 80 OFFCURVE",
"18 85 OFFCURVE",
"20 88 CURVE",
"23 96 OFFCURVE",
"29 103 OFFCURVE",
"34 111 CURVE",
"51 136 OFFCURVE",
"63 194 OFFCURVE",
"69 224 CURVE SMOOTH",
"72 248 OFFCURVE",
"75 273 OFFCURVE",
"84 296 CURVE SMOOTH",
"90 308 OFFCURVE",
"99 320 OFFCURVE",
"112 325 CURVE SMOOTH"
);
},
{
closed = 1;
nodes = (
"478 330 OFFCURVE",
"465 329 OFFCURVE",
"453 324 CURVE SMOOTH",
"436 317 OFFCURVE",
"423 304 OFFCURVE",
"411 290 CURVE SMOOTH",
"401 278 OFFCURVE",
"389 260 OFFCURVE",
"380 246 CURVE",
"390 240 OFFCURVE",
"404 236 OFFCURVE",
"412 228 CURVE SMOOTH",
"422 216 OFFCURVE",
"424 207 OFFCURVE",
"430 193 CURVE SMOOTH",
"434 183 OFFCURVE",
"433 175 OFFCURVE",
"434 165 CURVE SMOOTH",
"434 159 OFFCURVE",
"434 114 OFFCURVE",
"433 109 CURVE",
"440 103 OFFCURVE",
"453 95 OFFCURVE",
"463 95 CURVE SMOOTH",
"469 95 OFFCURVE",
"470 103 OFFCURVE",
"471 108 CURVE",
"476 100 OFFCURVE",
"480 91 OFFCURVE",
"489 88 CURVE",
"492 87 OFFCURVE",
"496 87 OFFCURVE",
"498 90 CURVE",
"499 93 OFFCURVE",
"499 98 OFFCURVE",
"499 102 CURVE",
"503 98 OFFCURVE",
"504 93 OFFCURVE",
"508 89 CURVE",
"512 84 OFFCURVE",
"519 80 OFFCURVE",
"526 83 CURVE",
"531 87 OFFCURVE",
"528 93 OFFCURVE",
"528 99 CURVE",
"532 92 OFFCURVE",
"536 85 OFFCURVE",
"543 81 CURVE SMOOTH",
"547 79 OFFCURVE",
"554 78 OFFCURVE",
"558 83 CURVE SMOOTH",
"560 87 OFFCURVE",
"558 91 OFFCURVE",
"558 95 CURVE",
"561 90 OFFCURVE",
"563 85 OFFCURVE",
"568 82 CURVE SMOOTH",
"571 80 OFFCURVE",
"576 78 OFFCURVE",
"580 79 CURVE",
"584 80 OFFCURVE",
"585 85 OFFCURVE",
"583 88 CURVE",
"580 96 OFFCURVE",
"574 103 OFFCURVE",
"569 111 CURVE",
"552 136 OFFCURVE",
"540 194 OFFCURVE",
"534 224 CURVE SMOOTH",
"531 248 OFFCURVE",
"528 273 OFFCURVE",
"519 296 CURVE SMOOTH",
"513 308 OFFCURVE",
"504 320 OFFCURVE",
"491 325 CURVE SMOOTH"
);
}
);
width = 600;
}
);
unicode = E027;
},
{
glyphname = uniE028;
lastChange = "2015-03-28 15:17:08 +0000";
layers = (
{
layerId = "1CBD98DB-2A5F-432D-A235-DA2633F59FB1";
name = Regular;
paths = (
{
closed = 1;
nodes = (
"563 473 OFFCURVE",
"567 481 OFFCURVE",
"574 486 CURVE",
"575 486 OFFCURVE",
"577 486 OFFCURVE",
"578 486 CURVE",
"577 480 OFFCURVE",
"580 475 OFFCURVE",
"579 469 CURVE",
"578 464 OFFCURVE",
"576 459 OFFCURVE",
"573 456 CURVE SMOOTH",
"571 453 OFFCURVE",
"569 451 OFFCURVE",
"567 448 CURVE",
"570 449 OFFCURVE",
"573 450 OFFCURVE",
"575 452 CURVE",
"579 455 OFFCURVE",
"581 460 OFFCURVE",
"586 460 CURVE",
"586 453 OFFCURVE",
"580 449 OFFCURVE",
"576 445 CURVE",
"565 440 OFFCURVE",
"557 432 OFFCURVE",
"547 426 CURVE",
"541 421 OFFCURVE",
"535 414 OFFCURVE",
"528 411 CURVE",
"517 401 OFFCURVE",
"505 393 OFFCURVE",
"494 384 CURVE",
"493 366 OFFCURVE",
"490 348 OFFCURVE",
"486 330 CURVE",
"483 329 OFFCURVE",
"479 329 OFFCURVE",
"475 329 CURVE",
"468 326 OFFCURVE",
"463 319 OFFCURVE",
"457 317 CURVE",
"454 316 OFFCURVE",
"451 315 OFFCURVE",
"449 312 CURVE",
"447 308 OFFCURVE",
"440 308 OFFCURVE",
"436 305 CURVE SMOOTH",
"433 302 OFFCURVE",
"428 301 OFFCURVE",
"425 299 CURVE",
"422 297 OFFCURVE",
"419 298 OFFCURVE",
"417 297 CURVE",
"406 294 OFFCURVE",
"397 286 OFFCURVE",
"386 283 CURVE SMOOTH",
"380 281 OFFCURVE",
"376 276 OFFCURVE",
"371 273 CURVE",
"371 264 OFFCURVE",
"369 255 OFFCURVE",
"368 246 CURVE",
"369 237 OFFCURVE",
"367 229 OFFCURVE",
"365 220 CURVE",
"365 213 OFFCURVE",
"363 206 OFFCURVE",
"362 199 CURVE",
"363 188 OFFCURVE",
"363 176 OFFCURVE",
"363 164 CURVE",
"365 156 OFFCURVE",
"367 149 OFFCURVE",
"367 141 CURVE",
"370 133 OFFCURVE",
"371 125 OFFCURVE",
"373 118 CURVE",
"375 109 OFFCURVE",
"375 100 OFFCURVE",
"378 92 CURVE SMOOTH",
"387 74 OFFCURVE",
"389 54 OFFCURVE",
"389 34 CURVE",
"332 34 OFFCURVE",
"275 34 OFFCURVE",
"219 34 CURVE SMOOTH",
"213 34 OFFCURVE",
"207 34 OFFCURVE",
"201 34 CURVE",
"205 51 OFFCURVE",
"206 68 OFFCURVE",
"210 84 CURVE",
"213 92 OFFCURVE",
"217 100 OFFCURVE",
"215 109 CURVE SMOOTH",
"213 114 OFFCURVE",
"217 119 OFFCURVE",
"218 125 CURVE SMOOTH",
"219 134 OFFCURVE",
"220 143 OFFCURVE",
"219 152 CURVE",
"222 164 OFFCURVE",
"219 176 OFFCURVE",
"224 187 CURVE",
"221 201 OFFCURVE",
"219 215 OFFCURVE",
"219 230 CURVE",
"217 237 OFFCURVE",
"218 244 OFFCURVE",
"216 251 CURVE SMOOTH",
"214 255 OFFCURVE",
"214 260 OFFCURVE",
"213 264 CURVE",
"211 266 OFFCURVE",
"209 266 OFFCURVE",
"207 266 CURVE",
"205 273 OFFCURVE",
"198 274 OFFCURVE",
"193 278 CURVE SMOOTH",
"188 282 OFFCURVE",
"180 282 OFFCURVE",
"174 285 CURVE SMOOTH",
"171 287 OFFCURVE",
"169 291 OFFCURVE",
"167 294 CURVE",
"155 303 OFFCURVE",
"140 307 OFFCURVE",
"126 313 CURVE",
"119 317 OFFCURVE",
"110 318 OFFCURVE",
"106 326 CURVE",
"101 326 OFFCURVE",
"98 329 OFFCURVE",
"95 331 CURVE",
"90 333 OFFCURVE",
"85 335 OFFCURVE",
"80 337 CURVE",
"78 340 OFFCURVE",
"78 344 OFFCURVE",
"78 347 CURVE",
"78 360 OFFCURVE",
"79 373 OFFCURVE",
"82 386 CURVE",
"69 397 OFFCURVE",
"58 410 OFFCURVE",
"45 421 CURVE",
"42 426 OFFCURVE",
"36 428 OFFCURVE",
"31 432 CURVE",
"25 436 OFFCURVE",
"21 443 OFFCURVE",
"15 450 CURVE SMOOTH",
"11 455 OFFCURVE",
"11 461 OFFCURVE",
"10 468 CURVE",
"8 473 OFFCURVE",
"11 477 OFFCURVE",
"12 482 CURVE",
"17 482 OFFCURVE",
"20 477 OFFCURVE",
"24 474 CURVE SMOOTH",
"30 468 OFFCURVE",
"37 463 OFFCURVE",
"45 459 CURVE",
"48 458 OFFCURVE",
"51 460 OFFCURVE",
"54 461 CURVE",
"54 467 OFFCURVE",
"53 473 OFFCURVE",
"55 478 CURVE SMOOTH",
"56 481 OFFCURVE",
"59 481 OFFCURVE",
"61 481 CURVE",
"61 470 OFFCURVE",
"64 459 OFFCURVE",
"61 448 CURVE",
"60 441 OFFCURVE",
"62 434 OFFCURVE",
"68 430 CURVE",
"78 420 OFFCURVE",
"89 411 OFFCURVE",
"102 406 CURVE",
"114 399 OFFCURVE",
"124 392 OFFCURVE",
"135 384 CURVE",
"139 380 OFFCURVE",
"145 378 OFFCURVE",
"150 377 CURVE",
"153 376 OFFCURVE",
"156 378 OFFCURVE",
"160 376 CURVE",
"163 376 OFFCURVE",
"164 372 OFFCURVE",
"166 370 CURVE",
"170 370 OFFCURVE",
"174 367 OFFCURVE",
"177 366 CURVE",
"184 364 OFFCURVE",
"191 364 OFFCURVE",
"195 359 CURVE",
"205 361 OFFCURVE",
"214 360 OFFCURVE",
"224 359 CURVE",
"232 360 OFFCURVE",
"241 361 OFFCURVE",
"249 358 CURVE",
"250 360 OFFCURVE",
"252 362 OFFCURVE",
"251 364 CURVE",
"249 370 OFFCURVE",
"250 376 OFFCURVE",
"249 382 CURVE SMOOTH",
"247 389 OFFCURVE",
"251 397 OFFCURVE",
"249 404 CURVE",
"247 408 OFFCURVE",
"250 411 OFFCURVE",
"250 415 CURVE",
"250 422 OFFCURVE",
"256 426 OFFCURVE",
"259 431 CURVE",
"264 438 OFFCURVE",
"272 445 OFFCURVE",
"281 445 CURVE",
"287 445 OFFCURVE",
"293 445 OFFCURVE",
"299 445 CURVE",
"303 443 OFFCURVE",
"307 441 OFFCURVE",
"312 438 CURVE",
"316 433 OFFCURVE",
"318 427 OFFCURVE",
"323 422 CURVE SMOOTH",
"326 419 OFFCURVE",
"325 413 OFFCURVE",
"328 409 CURVE",
"327 404 OFFCURVE",
"327 399 OFFCURVE",
"328 394 CURVE",
"328 390 OFFCURVE",
"327 386 OFFCURVE",
"325 384 CURVE",
"325 384 OFFCURVE",
"323 385 OFFCURVE",
"323 385 CURVE",
"326 382 OFFCURVE",
"327 377 OFFCURVE",
"324 374 CURVE",
"323 370 OFFCURVE",
"325 366 OFFCURVE",
"325 361 CURVE",
"325 360 OFFCURVE",
"323 358 OFFCURVE",
"325 357 CURVE",
"329 358 OFFCURVE",
"331 362 OFFCURVE",
"334 364 CURVE",
"339 366 OFFCURVE",
"345 367 OFFCURVE",
"349 363 CURVE",
"355 363 OFFCURVE",
"362 362 OFFCURVE",
"368 365 CURVE SMOOTH",
"377 369 OFFCURVE",
"387 363 OFFCURVE",
"397 367 CURVE",
"399 368 OFFCURVE",
"404 374 OFFCURVE",
"406 369 CURVE",
"409 373 OFFCURVE",
"415 373 OFFCURVE",
"419 376 CURVE",
"424 381 OFFCURVE",
"431 380 OFFCURVE",
"436 383 CURVE",
"439 381 OFFCURVE",
"443 381 OFFCURVE",
"446 383 CURVE SMOOTH",
"455 389 OFFCURVE",
"463 396 OFFCURVE",
"473 402 CURVE",
"488 408 OFFCURVE",
"501 417 OFFCURVE",
"514 426 CURVE",
"518 431 OFFCURVE",
"525 433 OFFCURVE",
"526 440 CURVE",
"528 446 OFFCURVE",
"526 453 OFFCURVE",
"526 459 CURVE",
"528 466 OFFCURVE",
"528 474 OFFCURVE",
"527 481 CURVE",
"530 481 OFFCURVE",
"533 481 OFFCURVE",
"534 478 CURVE",
"537 473 OFFCURVE",
"534 466 OFFCURVE",
"537 461 CURVE",
"544 457 OFFCURVE",
"550 464 OFFCURVE",
"556 468 CURVE SMOOTH"
);
}
);
width = 600;
}
);
unicode = E028;
},
{
glyphname = uniE029;
lastChange = "2015-03-28 16:38:48 +0000";
layers = (
{
layerId = "1CBD98DB-2A5F-432D-A235-DA2633F59FB1";
name = Regular;
paths = (
{
closed = 1;
nodes = (
"17 442 OFFCURVE",
"18 441 OFFCURVE",
"19 441 CURVE SMOOTH",
"22 438 OFFCURVE",
"24 435 OFFCURVE",
"26 432 CURVE SMOOTH",
"28 430 OFFCURVE",
"29 427 OFFCURVE",
"31 425 CURVE",
"33 424 OFFCURVE",
"35 422 OFFCURVE",
"36 420 CURVE SMOOTH",
"37 417 OFFCURVE",
"39 417 OFFCURVE",
"41 415 CURVE SMOOTH",
"43 413 OFFCURVE",
"47 411 OFFCURVE",
"50 411 CURVE",
"53 410 OFFCURVE",
"57 410 OFFCURVE",
"57 413 CURVE",
"58 418 OFFCURVE",
"57 423 OFFCURVE",
"57 427 CURVE",
"57 430 OFFCURVE",
"59 433 OFFCURVE",
"61 435 CURVE",
"62 435 OFFCURVE",
"63 435 OFFCURVE",
"64 435 CURVE",
"65 433 OFFCURVE",
"65 431 OFFCURVE",
"65 430 CURVE",
"67 423 OFFCURVE",
"65 416 OFFCURVE",
"66 410 CURVE SMOOTH",
"68 404 OFFCURVE",
"71 398 OFFCURVE",
"71 391 CURVE",
"71 389 OFFCURVE",
"69 387 OFFCURVE",
"69 385 CURVE",
"71 382 OFFCURVE",
"75 380 OFFCURVE",
"77 378 CURVE SMOOTH",
"79 374 OFFCURVE",
"83 373 OFFCURVE",
"87 371 CURVE",
"91 370 OFFCURVE",
"95 366 OFFCURVE",
"100 364 CURVE",
"102 363 OFFCURVE",
"104 363 OFFCURVE",
"106 361 CURVE",
"107 359 OFFCURVE",
"109 359 OFFCURVE",
"111 358 CURVE SMOOTH",
"112 356 OFFCURVE",
"115 356 OFFCURVE",
"117 355 CURVE",
"121 352 OFFCURVE",
"126 350 OFFCURVE",
"130 347 CURVE",
"134 344 OFFCURVE",
"138 342 OFFCURVE",
"142 338 CURVE",
"147 335 OFFCURVE",
"150 329 OFFCURVE",
"156 326 CURVE",
"158 324 OFFCURVE",
"160 321 OFFCURVE",
"164 319 CURVE SMOOTH",
"165 318 OFFCURVE",
"167 319 OFFCURVE",
"168 318 CURVE",
"170 316 OFFCURVE",
"173 317 OFFCURVE",
"175 316 CURVE SMOOTH",
"179 315 OFFCURVE",
"183 315 OFFCURVE",
"187 314 CURVE",
"189 313 OFFCURVE",
"191 312 OFFCURVE",
"192 310 CURVE",
"195 308 OFFCURVE",
"200 308 OFFCURVE",
"202 304 CURVE",
"203 303 OFFCURVE",
"205 303 OFFCURVE",
"206 301 CURVE SMOOTH",
"208 300 OFFCURVE",
"210 300 OFFCURVE",
"212 299 CURVE",
"215 296 OFFCURVE",
"219 296 OFFCURVE",
"223 295 CURVE",
"226 294 OFFCURVE",
"228 294 OFFCURVE",
"231 293 CURVE SMOOTH",
"234 292 OFFCURVE",
"237 292 OFFCURVE",
"240 291 CURVE",
"242 289 OFFCURVE",
"245 288 OFFCURVE",
"247 287 CURVE",
"249 286 OFFCURVE",
"250 287 OFFCURVE",
"251 285 CURVE SMOOTH",
"253 284 OFFCURVE",
"256 283 OFFCURVE",
"258 281 CURVE SMOOTH",
"259 280 OFFCURVE",
"261 278 OFFCURVE",
"263 277 CURVE SMOOTH",
"265 276 OFFCURVE",
"266 274 OFFCURVE",
"268 274 CURVE",
"273 272 OFFCURVE",
"278 274 OFFCURVE",
"282 276 CURVE",
"283 277 OFFCURVE",
"285 277 OFFCURVE",
"287 277 CURVE",
"287 278 OFFCURVE",
"287 279 OFFCURVE",
"287 279 CURVE",
"285 282 OFFCURVE",
"284 284 OFFCURVE",
"283 287 CURVE",
"275 299 OFFCURVE",
"276 306 OFFCURVE",
"274 309 CURVE",
"274 312 OFFCURVE",
"273 329 OFFCURVE",
"273 333 CURVE",
"272 341 OFFCURVE",
"272 350 OFFCURVE",
"273 358 CURVE",
"273 362 OFFCURVE",
"273 368 OFFCURVE",
"276 373 CURVE",
"277 374 OFFCURVE",
"277 374 OFFCURVE",
"278 377 CURVE",
"280 381 OFFCURVE",
"281 383 OFFCURVE",
"282 384 CURVE",
"283 387 OFFCURVE",
"287 390 OFFCURVE",
"290 392 CURVE",
"293 393 OFFCURVE",
"296 394 OFFCURVE",
"300 397 CURVE",
"309 399 OFFCURVE",
"319 400 OFFCURVE",
"329 397 CURVE SMOOTH",
"335 392 OFFCURVE",
"344 388 OFFCURVE",
"347 382 CURVE",
"351 373 OFFCURVE",
"355 366 OFFCURVE",
"358 358 CURVE",
"358 352 OFFCURVE",
"359 350 OFFCURVE",
"359 347 CURVE",
"359 339 OFFCURVE",
"362 339 OFFCURVE",
"358 321 CURVE",
"358 318 OFFCURVE",
"355 307 OFFCURVE",
"355 304 CURVE",
"352 296 OFFCURVE",
"344 285 OFFCURVE",
"342 280 CURVE SMOOTH",
"342 279 OFFCURVE",
"340 278 OFFCURVE",
"340 276 CURVE",
"343 276 OFFCURVE",
"345 274 OFFCURVE",
"348 274 CURVE",
"350 273 OFFCURVE",
"353 274 OFFCURVE",
"355 276 CURVE",
"357 279 OFFCURVE",
"361 280 OFFCURVE",
"364 282 CURVE",
"366 283 OFFCURVE",
"368 283 OFFCURVE",
"370 284 CURVE SMOOTH",
"372 286 OFFCURVE",
"375 286 OFFCURVE",
"378 287 CURVE",
"379 288 OFFCURVE",
"382 288 OFFCURVE",
"384 289 CURVE",
"386 289 OFFCURVE",
"389 291 OFFCURVE",
"391 289 CURVE",
"393 292 OFFCURVE",
"397 290 OFFCURVE",
"400 292 CURVE SMOOTH",
"401 293 OFFCURVE",
"403 292 OFFCURVE",
"405 293 CURVE",
"408 294 OFFCURVE",
"410 296 OFFCURVE",
"412 297 CURVE",
"416 300 OFFCURVE",
"421 300 OFFCURVE",
"424 303 CURVE",
"427 305 OFFCURVE",
"431 307 OFFCURVE",
"435 307 CURVE SMOOTH",
"437 308 OFFCURVE",
"439 307 OFFCURVE",
"441 308 CURVE",
"443 310 OFFCURVE",
"446 308 OFFCURVE",
"447 310 CURVE",
"449 311 OFFCURVE",
"452 310 OFFCURVE",
"453 312 CURVE",
"460 319 OFFCURVE",
"468 327 OFFCURVE",
"475 334 CURVE",
"477 336 OFFCURVE",
"479 338 OFFCURVE",
"482 339 CURVE",
"485 342 OFFCURVE",
"489 343 OFFCURVE",
"493 346 CURVE",
"496 348 OFFCURVE",
"499 351 OFFCURVE",
"503 352 CURVE",
"510 356 OFFCURVE",
"515 361 OFFCURVE",
"521 365 CURVE SMOOTH",
"524 367 OFFCURVE",
"525 371 OFFCURVE",
"529 371 CURVE",
"530 374 OFFCURVE",
"533 376 OFFCURVE",
"537 377 CURVE",
"538 378 OFFCURVE",
"539 379 OFFCURVE",
"539 381 CURVE",
"539 383 OFFCURVE",
"537 386 OFFCURVE",
"537 388 CURVE SMOOTH",
"538 391 OFFCURVE",
"537 394 OFFCURVE",
"538 397 CURVE",
"539 400 OFFCURVE",
"541 403 OFFCURVE",
"542 406 CURVE",
"544 410 OFFCURVE",
"546 413 OFFCURVE",
"546 417 CURVE",
"546 422 OFFCURVE",
"548 425 OFFCURVE",
"550 429 CURVE",
"552 430 OFFCURVE",
"553 429 OFFCURVE",
"555 429 CURVE",
"556 425 OFFCURVE",
"556 421 OFFCURVE",
"555 416 CURVE",
"554 413 OFFCURVE",
"551 410 OFFCURVE",
"553 407 CURVE",
"555 406 OFFCURVE",
"558 407 OFFCURVE",
"561 407 CURVE",
"564 409 OFFCURVE",
"566 411 OFFCURVE",
"568 414 CURVE",
"570 417 OFFCURVE",
"572 419 OFFCURVE",
"574 422 CURVE",
"576 425 OFFCURVE",
"579 427 OFFCURVE",
"578 430 CURVE SMOOTH",
"578 433 OFFCURVE",
"579 437 OFFCURVE",
"583 436 CURVE",
"583 435 OFFCURVE",
"583 434 OFFCURVE",
"584 432 CURVE",
"586 431 OFFCURVE",
"587 435 OFFCURVE",
"590 434 CURVE",
"590 434 LINE",
"589 430 OFFCURVE",
"589 427 OFFCURVE",
"589 423 CURVE",
"588 421 OFFCURVE",
"588 418 OFFCURVE",
"587 415 CURVE SMOOTH",
"587 413 OFFCURVE",
"585 412 OFFCURVE",
"585 410 CURVE",
"585 408 OFFCURVE",
"583 406 OFFCURVE",
"583 404 CURVE SMOOTH",
"582 402 OFFCURVE",
"581 399 OFFCURVE",
"580 397 CURVE SMOOTH",
"579 396 OFFCURVE",
"578 395 OFFCURVE",
"577 394 CURVE",
"577 391 OFFCURVE",
"575 391 OFFCURVE",
"574 388 CURVE",
"573 385 OFFCURVE",
"570 383 OFFCURVE",
"568 381 CURVE SMOOTH",
"565 378 OFFCURVE",
"562 375 OFFCURVE",
"559 373 CURVE SMOOTH",
"555 370 OFFCURVE",
"554 366 OFFCURVE",
"551 363 CURVE SMOOTH",
"548 360 OFFCURVE",
"545 357 OFFCURVE",
"542 354 CURVE",
"540 350 OFFCURVE",
"539 346 OFFCURVE",
"536 343 CURVE",
"531 339 OFFCURVE",
"527 336 OFFCURVE",
"524 331 CURVE",
"523 329 OFFCURVE",
"520 328 OFFCURVE",
"519 327 CURVE SMOOTH",
"515 323 OFFCURVE",
"511 319 OFFCURVE",
"507 316 CURVE",
"501 312 OFFCURVE",
"497 306 OFFCURVE",
"491 302 CURVE",
"489 301 OFFCURVE",
"486 300 OFFCURVE",
"484 298 CURVE",
"481 296 OFFCURVE",
"479 292 OFFCURVE",
"475 291 CURVE SMOOTH",
"473 289 OFFCURVE",
"471 288 OFFCURVE",
"469 288 CURVE",
"465 286 OFFCURVE",
"462 284 OFFCURVE",
"459 281 CURVE SMOOTH",
"454 278 OFFCURVE",
"450 273 OFFCURVE",
"444 272 CURVE",
"439 267 OFFCURVE",
"434 261 OFFCURVE",
"428 256 CURVE",
"426 254 OFFCURVE",
"423 252 OFFCURVE",
"421 249 CURVE",
"416 248 OFFCURVE",
"416 245 OFFCURVE",
"412 244 CURVE",
"408 242 OFFCURVE",
"405 240 OFFCURVE",
"402 238 CURVE",
"399 235 OFFCURVE",
"397 232 OFFCURVE",
"393 229 CURVE",
"393 228 OFFCURVE",
"394 221 OFFCURVE",
"393 220 CURVE",
"393 218 OFFCURVE",
"391 216 OFFCURVE",
"391 214 CURVE SMOOTH",
"390 212 OFFCURVE",
"389 210 OFFCURVE",
"388 207 CURVE SMOOTH",
"387 204 OFFCURVE",
"388 201 OFFCURVE",
"386 197 CURVE SMOOTH",
"385 194 OFFCURVE",
"386 190 OFFCURVE",
"385 186 CURVE SMOOTH",
"384 185 OFFCURVE",
"385 184 OFFCURVE",
"383 183 CURVE SMOOTH",
"381 180 OFFCURVE",
"381 177 OFFCURVE",
"380 175 CURVE",
"377 169 OFFCURVE",
"375 163 OFFCURVE",
"375 157 CURVE SMOOTH",
"375 153 OFFCURVE",
"376 149 OFFCURVE",
"376 145 CURVE SMOOTH",
"376 143 OFFCURVE",
"375 140 OFFCURVE",
"374 138 CURVE",
"374 136 OFFCURVE",
"374 133 OFFCURVE",
"373 131 CURVE",
"373 124 OFFCURVE",
"373 117 OFFCURVE",
"373 109 CURVE",
"373 107 OFFCURVE",
"371 105 OFFCURVE",
"372 103 CURVE",
"371 98 OFFCURVE",
"373 93 OFFCURVE",
"373 88 CURVE",
"374 84 OFFCURVE",
"374 80 OFFCURVE",
"374 77 CURVE",
"374 75 OFFCURVE",
"374 73 OFFCURVE",
"373 71 CURVE",
"377 67 OFFCURVE",
"375 62 OFFCURVE",
"376 57 CURVE",
"378 54 OFFCURVE",
"377 50 OFFCURVE",
"377 47 CURVE",
"377 39 OFFCURVE",
"376 31 OFFCURVE",
"380 23 CURVE",
"381 20 OFFCURVE",
"380 16 OFFCURVE",
"381 12 CURVE",
"383 8 OFFCURVE",
"382 4 OFFCURVE",
"383 -1 CURVE",
"225 -1 LINE",
"224 5 OFFCURVE",
"227 11 OFFCURVE",
"227 16 CURVE SMOOTH",
"226 19 OFFCURVE",
"228 22 OFFCURVE",
"228 25 CURVE SMOOTH",
"228 29 OFFCURVE",
"231 32 OFFCURVE",
"231 35 CURVE",
"231 38 OFFCURVE",
"231 40 OFFCURVE",
"232 43 CURVE",
"233 47 OFFCURVE",
"232 52 OFFCURVE",
"234 57 CURVE SMOOTH",
"235 61 OFFCURVE",
"234 65 OFFCURVE",
"235 69 CURVE",
"236 71 OFFCURVE",
"236 73 OFFCURVE",
"236 76 CURVE",
"236 79 OFFCURVE",
"237 82 OFFCURVE",
"237 86 CURVE",
"236 95 OFFCURVE",
"238 104 OFFCURVE",
"238 113 CURVE",
"238 115 OFFCURVE",
"239 115 OFFCURVE",
"239 116 CURVE",
"239 125 OFFCURVE",
"238 133 OFFCURVE",
"238 142 CURVE",
"237 149 OFFCURVE",
"236 157 OFFCURVE",
"234 165 CURVE",
"234 168 OFFCURVE",
"235 172 OFFCURVE",
"233 175 CURVE",
"232 181 OFFCURVE",
"231 185 OFFCURVE",
"230 191 CURVE",
"230 193 OFFCURVE",
"229 194 OFFCURVE",
"228 196 CURVE",
"227 202 OFFCURVE",
"223 208 OFFCURVE",
"223 214 CURVE SMOOTH",
"223 218 OFFCURVE",
"219 227 OFFCURVE",
"219 231 CURVE SMOOTH",
"219 234 OFFCURVE",
"217 236 OFFCURVE",
"216 238 CURVE",
"216 239 OFFCURVE",
"216 240 OFFCURVE",
"216 240 CURVE",
"211 244 OFFCURVE",
"208 250 OFFCURVE",
"202 252 CURVE",
"198 255 OFFCURVE",
"194 256 OFFCURVE",
"190 260 CURVE SMOOTH",
"185 264 OFFCURVE",
"181 269 OFFCURVE",
"176 274 CURVE",
"171 279 OFFCURVE",
"167 284 OFFCURVE",
"161 288 CURVE",
"156 292 OFFCURVE",
"151 295 OFFCURVE",
"146 300 CURVE",
"142 301 OFFCURVE",
"140 304 OFFCURVE",
"136 305 CURVE",
"133 307 OFFCURVE",
"130 308 OFFCURVE",
"127 310 CURVE",
"118 316 OFFCURVE",
"108 320 OFFCURVE",
"100 328 CURVE",
"92 330 OFFCURVE",
"88 338 OFFCURVE",
"82 342 CURVE",
"79 344 OFFCURVE",
"77 347 OFFCURVE",
"75 349 CURVE",
"73 351 OFFCURVE",
"71 354 OFFCURVE",
"69 356 CURVE",
"66 357 OFFCURVE",
"64 361 OFFCURVE",
"62 363 CURVE SMOOTH",
"60 365 OFFCURVE",
"58 367 OFFCURVE",
"55 368 CURVE SMOOTH",
"54 369 OFFCURVE",
"53 370 OFFCURVE",
"52 372 CURVE",
"49 375 OFFCURVE",
"44 377 OFFCURVE",
"42 381 CURVE SMOOTH",
"41 384 OFFCURVE",
"38 385 OFFCURVE",
"36 387 CURVE",
"34 390 OFFCURVE",
"32 393 OFFCURVE",
"30 395 CURVE",
"29 400 OFFCURVE",
"25 404 OFFCURVE",
"22 408 CURVE",
"20 410 OFFCURVE",
"21 413 OFFCURVE",
"19 416 CURVE SMOOTH",
"17 419 OFFCURVE",
"17 423 OFFCURVE",
"16 427 CURVE",
"16 432 OFFCURVE",
"16 437 OFFCURVE",
"16 442 CURVE"
);
}
);
width = 600;
}
);
unicode = E029;
},
